<?xml version="1.0" encoding="utf-8"?>
<!-- Generator: Adobe Illustrator 18.1.1, SVG Export Plug-In . SVG Version: 6.00 Build 0)  -->
<svg version="1.1" id="Layer_1" xmlns="http://www.w3.org/2000/svg" xmlns:xlink="http://www.w3.org/1999/xlink" x="0px" y="0px"
	 viewBox="0 0 105 105" enable-background="new 0 0 105 105" xml:space="preserve">
<radialGradient id="SVGID_1_" cx="-184.0491" cy="-223.6529" r="3.191995e-002" gradientTransform="matrix(2291.6716 0 0 -2218.7549 421816.0938 -496204.2813)" gradientUnits="userSpaceOnUse">
	<stop  offset="0" style="stop-color:#34364E;stop-opacity:0.98"/>
	<stop  offset="1" style="stop-color:#0C0824"/>
</radialGradient>
<path fill="url(#SVGID_1_)" d="M4.4,5.7h96.3v93.6H4.4V5.7z"/>
<path fill="#31C5F0" d="M4.4,5.7h96.3v93.6H4.4V5.7z M0,103.7h105V1.3H0V103.7z M70.8,43.3c-3.5,0-4.6,1.7-4.6,3.2
	c0,1.6,0.8,2.7,5.4,5.1c6.9,3.3,9,6.5,9,11.2c0,7-5.3,10.8-12.6,10.8c-3.8,0-7.1-0.8-9-1.9c-0.3-0.1-0.3-0.3-0.3-0.7v-6.4
	c0-0.4,0.2-0.6,0.5-0.3c2.8,1.8,5.9,2.6,8.8,2.6c3.5,0,4.9-1.4,4.9-3.4c0-1.6-1-3-5.4-5.3c-6.2-3-8.8-6-8.8-11
	c0-5.6,4.4-10.3,12.1-10.3c3.8,0,6.4,0.6,7.8,1.2c0.3,0.2,0.4,0.6,0.4,0.9v6c0,0.3-0.2,0.6-0.7,0.4C76.5,44.1,73.6,43.3,70.8,43.3
	L70.8,43.3z M33.2,48.5c1,0.1,1.8,0.1,3.5,0.1c5.1,0,9.9-1.8,9.9-8.7c0-5.6-3.5-8.4-9.3-8.4c-1.7,0-3.4,0.1-4.2,0.1V48.5z
	 M25.4,25.3c0-0.3,0.6-0.5,1-0.5c2.8-0.1,7-0.2,11.3-0.2c12.1,0,16.8,6.6,16.8,15.1c0,11.1-8,15.9-17.9,15.9c-1.7,0-2.2-0.1-3.4-0.1
	v16.8c0,0.3-0.1,0.5-0.5,0.5h-6.7c-0.3,0-0.5-0.1-0.5-0.5L25.4,25.3L25.4,25.3z"/>
</svg>
