<?xml version="1.0" encoding="utf-8"?>
<!-- Generator: Adobe Illustrator 18.1.1, SVG Export Plug-In . SVG Version: 6.00 Build 0)  -->
<svg version="1.1" id="Layer_1" xmlns="http://www.w3.org/2000/svg" xmlns:xlink="http://www.w3.org/1999/xlink" x="0px" y="0px"
	 viewBox="0 0 105 105" enable-background="new 0 0 105 105" xml:space="preserve">
<radialGradient id="SVGID_1_" cx="1109.2731" cy="144.9027" r="0.76" gradientTransform="matrix(96.2502 0 0 93.1877 -106731.6953 -13476.4863)" gradientUnits="userSpaceOnUse">
	<stop  offset="0" style="stop-color:#423325;stop-opacity:0.98"/>
	<stop  offset="1" style="stop-color:#1C0A00"/>
</radialGradient>
<path fill="url(#SVGID_1_)" d="M4.4,5.7h96.3v93.6H4.4V5.7z"/>
<path fill="#FF7F18" d="M4.4,5.7h96.3v93.6H4.4V5.7z M0,103.7h105V1.3H0V103.7z M68.8,37.8c0-0.3,0.1-0.5,0.5-0.5h6.9
	c0.3,0,0.5,0.1,0.5,0.5v34.5c0,0.3-0.1,0.5-0.5,0.5h-6.8c-0.4,0-0.6-0.2-0.6-0.6L68.8,37.8L68.8,37.8L68.8,37.8z M68.3,27.9
	c0-2.8,2-4.5,4.5-4.5c2.7,0,4.5,1.8,4.5,4.5c0,2.9-1.9,4.5-4.5,4.5C70.1,32.3,68.3,30.8,68.3,27.9z M48.6,52.2
	c-1.2-4.9-4.1-15.4-5.2-20.6h-0.1c-0.9,5.1-3.2,13.8-5.1,20.6H48.6z M36.4,59.3L33,72.4c-0.1,0.3-0.2,0.4-0.7,0.4h-6.4
	c-0.4,0-0.5-0.1-0.4-0.7l12.4-43.5c0.2-0.8,0.3-1.5,0.4-3.6c0-0.3,0.1-0.4,0.3-0.4h9.2c0.3,0,0.4,0.1,0.5,0.4l13.9,47.2
	c0.1,0.3,0,0.6-0.3,0.6h-7.3c-0.3,0-0.6-0.1-0.7-0.4l-3.6-13.2H36.4L36.4,59.3z"/>
</svg>
