<?xml version="1.0" encoding="utf-8"?>
<!-- Generator: Adobe Illustrator 18.1.1, SVG Export Plug-In . SVG Version: 6.00 Build 0)  -->
<svg version="1.1" id="Layer_1" xmlns="http://www.w3.org/2000/svg" xmlns:xlink="http://www.w3.org/1999/xlink" x="0px" y="0px"
	 viewBox="0 0 105 105" enable-background="new 0 0 105 105" xml:space="preserve">
<g id="XMLID_229_">
	<g id="XMLID_690_">
		<g id="XMLID_691_">
			<g>
				<g id="XMLID_44_">
					<g id="XMLID_48_">
						<path id="XMLID_49_" fill="#0080FF" d="M52.5,104.5V84.4c21.3,0,37.9-21.2,29.7-43.6c-3-8.3-9.7-15-18-18
							c-22.5-8.1-43.6,8.4-43.6,29.7l0,0H0.5c0-34,32.9-60.6,68.6-49.4c15.6,4.9,28,17.3,32.8,32.8
							C113.1,71.6,86.6,104.5,52.5,104.5z"/>
					</g>
					<polygon id="XMLID_47_" fill="#0080FF" points="52.6,84.4 32.5,84.4 32.5,64.4 32.5,64.4 52.6,64.4 52.6,64.4 					"/>
					<polygon id="XMLID_46_" fill="#0080FF" points="32.5,99.9 17.1,99.9 17.1,99.9 17.1,84.4 32.5,84.4 					"/>
					<path id="XMLID_45_" fill="#0080FF" d="M17.1,84.4H4.2l0,0V71.5l0,0h12.9l0,0V84.4z"/>
				</g>
			</g>
		</g>
	</g>
</g>
</svg>
