<?xml version="1.0" encoding="utf-8"?>
<!-- Generator: Adobe Illustrator 18.1.1, SVG Export Plug-In . SVG Version: 6.00 Build 0)  -->
<svg version="1.1" id="Layer_1" xmlns="http://www.w3.org/2000/svg" xmlns:xlink="http://www.w3.org/1999/xlink" x="0px" y="0px"
	 viewBox="0 0 105 105" enable-background="new 0 0 105 105" xml:space="preserve">
	 
<g id="g2305" transform="matrix(2.17444, 0, 0, 2.17437, -218.687, -223.172)">
	
		<linearGradient id="path2312_1_" gradientUnits="userSpaceOnUse" x1="157.927" y1="101.0418" x2="157.927" y2="63.7376" gradientTransform="matrix(2.1744 0 0 -2.1744 -218.687 328.172)">
		<stop  offset="0" style="stop-color:#BF0000"/>
		<stop  offset="1" style="stop-color:#8F0000"/>
	</linearGradient>
	<path id="path2312" fill="url(#path2312_1_)" d="M100.6,104.3v2.1c0.9,0,1.6,0.7,1.6,1.6c0,0.9-0.7,1.6-1.6,1.6v2.1
		c0.9,0,1.6,0.7,1.6,1.6c0,0.9-0.7,1.6-1.6,1.6v2.1c0.9,0,1.6,0.7,1.6,1.6s-0.7,1.6-1.6,1.6v2.1c0.9,0,1.6,0.7,1.6,1.6
		s-0.7,1.6-1.6,1.6v2.1c0.9,0,1.6,0.7,1.6,1.6c0,0.9-0.7,1.6-1.6,1.6v2.1c0.9,0,1.6,0.7,1.6,1.6c0,0.9-0.7,1.6-1.6,1.6v2.1
		c0.9,0,1.6,0.7,1.6,1.6c0,0.9-0.7,1.6-1.6,1.6v2.1c0.9,0,1.6,0.7,1.6,1.6c0,0.9-0.7,1.6-1.6,1.6v2.1c0.4,0,0.8,0.2,1.1,0.5
		c0.3,0.3,0.5,0.7,0.5,1.1h2.1c0-0.9,0.7-1.6,1.6-1.6c0.9,0,1.6,0.7,1.6,1.6h2.1c0-0.9,0.7-1.6,1.6-1.6c0.9,0,1.6,0.7,1.6,1.6h2.1
		c0-0.9,0.7-1.6,1.6-1.6c0.9,0,1.6,0.7,1.6,1.6h2.1c0-0.9,0.7-1.6,1.6-1.6s1.6,0.7,1.6,1.6h2.1c0-0.9,0.7-1.6,1.6-1.6
		c0.9,0,1.6,0.7,1.6,1.6h2.1c0-0.9,0.7-1.6,1.6-1.6c0.9,0,1.6,0.7,1.6,1.6h2.1c0-0.9,0.7-1.6,1.6-1.6s1.6,0.7,1.6,1.6h2.1
		c0-0.9,0.7-1.6,1.6-1.6s1.6,0.7,1.6,1.6h2.1c0-0.4,0.2-0.8,0.5-1.1c0.3-0.3,0.7-0.5,1.1-0.5v-2.1c-0.9,0-1.6-0.7-1.6-1.6
		c0-0.9,0.7-1.6,1.6-1.6v-2.1c-0.9,0-1.6-0.7-1.6-1.6s0.7-1.6,1.6-1.6v-2.1c-0.9,0-1.6-0.7-1.6-1.6c0-0.9,0.7-1.6,1.6-1.6v-2.1
		c-0.9,0-1.6-0.7-1.6-1.6c0-0.9,0.7-1.6,1.6-1.6v-2.1c-0.9,0-1.6-0.7-1.6-1.6s0.7-1.6,1.6-1.6v-2.1c-0.9,0-1.6-0.7-1.6-1.6
		s0.7-1.6,1.6-1.6V115c-0.9,0-1.6-0.7-1.6-1.6c0-0.9,0.7-1.6,1.6-1.6v-2.1c-0.9,0-1.6-0.7-1.6-1.6c0-0.9,0.7-1.6,1.6-1.6v-2.1
		c-0.4,0-0.8-0.2-1.1-0.5c-0.3-0.3-0.5-0.7-0.5-1.1h-2.1c0,0.9-0.7,1.6-1.6,1.6c-0.9,0-1.6-0.7-1.6-1.6h-2.1c0,0.9-0.7,1.6-1.6,1.6
		c-0.9,0-1.6-0.7-1.6-1.6h-2.1c0,0.9-0.7,1.6-1.6,1.6s-1.6-0.7-1.6-1.6H129c0,0.9-0.7,1.6-1.6,1.6s-1.6-0.7-1.6-1.6h-2.1
		c0,0.9-0.7,1.6-1.6,1.6c-0.9,0-1.6-0.7-1.6-1.6h-2.1c0,0.9-0.7,1.6-1.6,1.6c-0.9,0-1.6-0.7-1.6-1.6h-2.1c0,0.9-0.7,1.6-1.6,1.6
		c-0.9,0-1.6-0.7-1.6-1.6h-2.1c0,0.9-0.7,1.6-1.6,1.6s-1.6-0.7-1.6-1.6h-2.1c0,0.4-0.2,0.8-0.5,1.1
		C101.4,104.1,101,104.3,100.6,104.3z"/>
	<path id="path2314" fill="#FFFFFF" d="M141.7,122h-24.1l1.3-5.9h14.7l1.3-6.3h-21.1l-6.6,31.3h6.4l2.9-13.7h15.3l-13.3,13.2
		l2.3,4.1c1.1-0.7,2.8-0.8,4-0.8c2.2,0,4.3,0.7,6.5,0.7c2,0,4.1-0.1,7.5-1.8l1.2-5.5c-2.3,0.9-5.7,1.8-8.6,1.8
		c-1.2,0-2.3-0.3-3.5-0.4l12.9-12.5L141.7,122z"/>
</g>
</svg>
