<?xml version="1.0" encoding="utf-8"?>
<!-- Generator: Adobe Illustrator 18.1.1, SVG Export Plug-In . SVG Version: 6.00 Build 0)  -->
<svg version="1.1" id="Layer_1" xmlns="http://www.w3.org/2000/svg" xmlns:xlink="http://www.w3.org/1999/xlink" x="0px" y="0px"
	 viewBox="0 0 105 105" enable-background="new 0 0 105 105" xml:space="preserve">
<g>
	<path fill="#F05133" d="M100.5,48L56.9,4.4c-2.5-2.5-6.6-2.5-9.1,0l-9,9l11.5,11.5c2.7-0.9,5.8-0.3,7.8,1.8
		c2.2,2.2,2.7,5.2,1.8,7.9L71,45.8c2.7-0.9,5.8-0.3,7.9,1.8c3,2.9,3,7.8,0,10.9s-7.8,3-10.9,0c-2.3-2.3-2.8-5.5-1.6-8.4L56.1,39.8
		V67c0.8,0.3,1.4,0.9,2.1,1.4c3,2.9,3,7.8,0,10.9c-3,2.9-7.8,2.9-10.9,0c-3-3-3-7.8,0-10.9c0.8-0.8,1.6-1.3,2.5-1.6V39.3
		c-0.9-0.3-1.7-1-2.5-1.6c-2.3-2.3-2.8-5.5-1.6-8.4L34.3,18L4.4,47.9c-2.5,2.5-2.5,6.6,0,9.1L48,100.6c2.5,2.5,6.6,2.5,9.1,0
		l43.4-43.4C103.1,54.6,103.1,50.5,100.5,48z"/>
</g>
</svg>
