<?xml version="1.0" encoding="utf-8"?>
<!-- Generator: Adobe Illustrator 18.1.1, SVG Export Plug-In . SVG Version: 6.00 Build 0)  -->
<svg version="1.1" id="Layer_1" xmlns="http://www.w3.org/2000/svg" xmlns:xlink="http://www.w3.org/1999/xlink" x="0px" y="0px"
	 viewBox="0 0 105 105" enable-background="new 0 0 105 105" xml:space="preserve">
<g>
	<path fill="#181616" d="M52.5,3.7c-27.6,0-50,22.4-50,50c0,22.1,14.3,40.8,34.2,47.5c2.5,0.5,3.4-1.1,3.4-2.4
		c0-1.2-0.1-5.1-0.1-9.3c-13.9,3.1-16.8-5.9-16.8-5.9c-2.2-5.8-5.6-7.3-5.6-7.3c-4.6-3.1,0.3-3.1,0.3-3.1c5.1,0.3,7.7,5.1,7.7,5.1
		c4.5,7.6,11.7,5.5,14.6,4.1c0.4-3.2,1.7-5.5,3.1-6.7c-11.1-1.2-22.8-5.6-22.8-24.7c0-5.5,2-9.9,5.1-13.4c-0.5-1.2-2.2-6.4,0.5-13.3
		c0,0,4.2-1.3,13.8,5.1c4-1.1,8.3-1.7,12.5-1.7s8.5,0.6,12.5,1.7c9.5-6.5,13.8-5.1,13.8-5.1c2.7,6.9,1,12,0.5,13.3
		c3.2,3.5,5.1,8,5.1,13.4c0,19.2-11.7,23.4-22.9,24.7c1.8,1.6,3.4,4.6,3.4,9.3c0,6.7-0.1,12.1-0.1,13.8c0,1.3,0.9,2.9,3.4,2.4
		c19.9-6.6,34.2-25.4,34.2-47.5C102.6,26.1,80.2,3.7,52.5,3.7z"/>
	<path fill="#181616" d="M21.5,75.5c-0.1,0.2-0.5,0.3-0.8,0.2c-0.3-0.2-0.6-0.5-0.4-0.7c0.1-0.2,0.5-0.3,0.8-0.2
		C21.4,74.9,21.6,75.2,21.5,75.5L21.5,75.5z"/>
	<path fill="#181616" d="M23.5,77.8c-0.2,0.2-0.7,0.1-1-0.2c-0.3-0.3-0.4-0.8-0.2-1.1c0.2-0.2,0.7-0.1,1,0.2
		C23.7,77.1,23.7,77.6,23.5,77.8L23.5,77.8z"/>
	<path fill="#181616" d="M25.4,80.6c-0.3,0.2-0.8,0-1.1-0.4c-0.3-0.4-0.3-1,0-1.2c0.3-0.2,0.8,0,1.1,0.4
		C25.8,79.9,25.8,80.5,25.4,80.6L25.4,80.6z"/>
	<path fill="#181616" d="M28.2,83.4c-0.2,0.3-0.8,0.2-1.3-0.2c-0.4-0.4-0.6-1-0.2-1.2c0.2-0.3,0.8-0.2,1.3,0.2
		C28.3,82.5,28.4,83.1,28.2,83.4L28.2,83.4z"/>
	<path fill="#181616" d="M31.9,85.1c-0.1,0.4-0.7,0.6-1.2,0.4c-0.6-0.2-0.9-0.7-0.8-1c0.1-0.4,0.7-0.6,1.2-0.4
		C31.7,84.2,32,84.7,31.9,85.1L31.9,85.1z"/>
	<path fill="#181616" d="M36,85.3c0,0.4-0.5,0.7-1.1,0.7c-0.6,0-1.1-0.3-1.1-0.7c0-0.4,0.5-0.7,1.1-0.7S36,84.9,36,85.3L36,85.3z"/>
	<path fill="#181616" d="M39.8,84.7c0.1,0.4-0.3,0.8-0.9,0.9c-0.6,0.1-1.1-0.2-1.2-0.6c-0.1-0.4,0.3-0.8,0.9-0.9
		C39.2,84,39.7,84.3,39.8,84.7L39.8,84.7z"/>
</g>
</svg>
