<?xml version="1.0" encoding="utf-8"?>
<!-- Generator: Adobe Illustrator 18.1.1, SVG Export Plug-In . SVG Version: 6.00 Build 0)  -->
<svg version="1.1" id="Layer_1" xmlns="http://www.w3.org/2000/svg" xmlns:xlink="http://www.w3.org/1999/xlink" x="0px" y="0px"
	 viewBox="0 0 105 105" enable-background="new 0 0 105 105" xml:space="preserve">
<g>
	<path fill="#FBA919" d="M20.2,26.8c0,0,1.7,6.6,2,8.8c0.2,2.2-4.4,7.1-4.4,9.5s1,6.8,6.4,9.1c5.4,2.2,6.1,7.8,6.1,11.3
		c0,3.4-2,10-2,10s-1.2,16.4,5.4,19.3c6.6,2.9,5.1,2.9,6.6,2.9s12.2,4.4,18.6,2.7c6.4-1.7,8.1-3.7,8.1-3.7s6.4,0.5,8.3-5.1
		c2-5.6,3.2-17.4,2.4-22.7C77,63.5,76,56.4,80.4,54c4.4-2.4,9.1-5.4,8.3-7.8c-0.7-2.4-4.6-5.9-4.6-5.9s-1-6.1-0.2-7.6
		c0.7-1.5,5.1-5.1,2.7-7.8c-2.4-2.7-6.8-2.7-6.8-2.7L74,22.6c0,0-9.5-8.6-22-8.1c-12.5,0.5-20.3,8.1-20.3,8.1s-4.2-1.5-7.8,0
		C20.2,24.1,19.5,22.6,20.2,26.8z"/>
	<path fill="#E78724" d="M42.6,63.2c0,0-4.8,7.4-8.4,12.7c-0.5,0.8,3.6,0.9,3.6,0.9L42.6,63.2L42.6,63.2z M44.9,47.9
		c0,0-1.5,3.6-2.3,5.6c-0.9,2.1-4.2,3.1-4.2,3.1s1.7-1.8,1.7-6.4c0-1.9,2.5-2.7,2.5-2.7L44.9,47.9L44.9,47.9z"/>
	<path fill="#E78724" d="M43.4,49.9c0,0-3,3.6-8.5,1.6c-5.6-2-6.1-9.1-6.1-11.1c0-2,10.5,2,12,2.8C42.1,44.1,44.8,47.5,43.4,49.9
		L43.4,49.9z M22.4,11.9c0,0,5.1-1,8.5,1.7s4.4,4.8,4.4,4.8L29.6,23c0,0-2.8-1.3-3.6-5C25.1,14.3,25.7,12.6,22.4,11.9L22.4,11.9z"/>
	<path fill="#E78724" d="M41.9,39.6c-2.2-3.1-5.8-4.5-8.8-4.7c-5-0.4-7.3,1.4-7.3,1.4s8.1,0.3,10.5,3.4c4.4,5.7,10.7,6.2,11.7,4.9
		c-1.2,0.1-2.5-0.5-3.8-1.8C43.3,42,42.6,40.6,41.9,39.6z M28.2,50.7c0,0-9-3.1-7.3-6.2c1.7-3.1,0.3-4.8,0.3-4.8s-5,3.8-3.7,7.7
		c0.8,2.4,2.1,4.2,9.4,7.6c3.5,6.5,0.7,18.1,0.9,18.1c0.3,0.1,4.9-2.3,4.6-13.2C32.2,56.7,32,52.1,28.2,50.7L28.2,50.7z M40,17.5
		C36.2,19.4,31,22,31,22l2,1c-0.2,0.3-0.3,0.5-0.3,0.5l2.1,1c0,0,5.1,3.7,8.2,6.1c-1-3.2-4.1-8.2-4.1-8.2S38.1,20,40,17.5L40,17.5z
		 M52.5,95.6c-11.6,0-15.5-5.9-15.5-5.9l1.8,4.4c0.7,1.9,8,7.9,13.7,7.9"/>
	<path fill="#E78724" d="M38.3,85.7c0,0,1.1,6.5,5.3,6.5c3.6,0,4.7-5.5,4.7-6.6L38.3,85.7L38.3,85.7z M31.2,75.9
		c0.4-1,1.7-5.3,2.1-9.1c0.5-4.6,0.3-11.3,0.3-11.3s-1.1,4.4-2.1,5.1c-1,0.7-2.8,5.6-2.8,5.6s-1,7.2-1.5,9.6
		C28.5,76,29.6,75.3,31.2,75.9L31.2,75.9z M20.8,47.3c0,0,2.4-0.9,3.1-6.1c0.7-5.3-0.9-9.8-0.9-9.8s0.1,7.3-0.7,8.7
		c-0.9,1.4-1.6,1.9-2.6,3.7C18.8,45.6,20.3,46.8,20.8,47.3L20.8,47.3z"/>
	<path fill="#FDC168" d="M23.7,13.1l-0.5-0.3C21.8,12.9,23.7,13.1,23.7,13.1z"/>
	<path fill="#FBA919" d="M42,15.9c0,0-2.3-0.4-3.4-2.1c-1.1-1.7-4.4-5.1-9.5-5.2c-5.1,0-10.2,1.4-10.2,1.4l4.4,2.8
		c0.5,0,1.3,0,2.7,0c5.6,0.2,6.4,5.7,6.4,5.7L52,15.8"/>
	<path fill="#FFFFFF" d="M43.9,46.4c0,0-2.7,2.7-6.7,1.8c-4.1-0.9-6.6-2.7-6.7-5.8s0.9-4.4,0.9-4.4s4.6,1.4,6.7,3.3
		C40.2,43.2,41.8,46.3,43.9,46.4L43.9,46.4z"/>
	<path fill="#C9C9C9" d="M40.6,45.4c0,0-2.3,1.1-4.9,0.2c-3.4-1.1-3.6-4.6-3.6-4.6s-2.1,6.1,3.7,7.2c4.7,0.9,7.4-1.8,7.4-1.8
		L40.6,45.4L40.6,45.4z"/>
	<path fill="#463014" d="M42.3,14.6c-0.2-5.2,4-9.4,5.5-9.5c0.1,0.9-0.1,4.3,1.4,5.4c0.4-2.8,1.9-5.9,7.6-7.9
		c-1.2,3.3-0.2,6,0.3,7.3c3.9-3.6,6.6-3,6.6-3s-2.7,4.7-1.7,7.8C54.2,14,42.3,15.4,42.3,14.6L42.3,14.6z M25.6,22.5
		c-1.9-1.6-0.5-3-0.6-4.8c-0.1-0.9-0.2-1.8-0.5-2.3c-1.7-2.7-5.8-3.6-5.9-3.6l-1.9-0.4L18,10c0.2-0.2,5.4-5.2,13.4-2.6
		c5.6,1.8,9.8,8,10,8.2L38.6,17c0-0.1-3.3-5.9-8.2-7.4c-3.9-1.3-7.5-0.1-9.1,0.7c1.6,0.7,3.8,1.8,5.1,3.9c0.6,1,0.7,2.2,0.8,3.4
		c0.1,1.6,0.3,3,1.4,4L25.6,22.5z M20.5,45.3c0,0,2.4-2.9,3.1-8.7c0.3-2.3-0.2-6.7-1-8.4c0.1,4.2-0.9,8.4-0.9,8.4S21,44.5,20.5,45.3
		L20.5,45.3z"/>
	<path fill="#463014" d="M33,19.6c0,0-0.8-3.3-2.9-5c-3-2.4-6.6-1.1-6.6-1.1L23,11.9c0.2-0.1,4.3-1.4,8.1,1.3
		c3.8,2.7,4.3,5.1,4.3,5.4L33,19.6L33,19.6z M28,43.2c0,0-1.2-1.8-1-3.7c0.1-1,0.6-2,1.4-2.3c1.5-0.7,2.1,1,2.1,1S28.4,38.7,28,43.2
		L28,43.2z"/>
	<path fill="#463014" d="M41.6,45.9c0.1,0.1,0.1,0.2,0.1,0.2s-3.9,2.9-7.9,0c-2.1-1.6-1.9-5.5-1.3-7.2c1.7,0.4,3.1,1.1,4.3,1.9
		c-1.5-1.4-2.8-2.4-2.8-2.4l-1.7-0.5L29,36.8c0,0.3-1.3,6,2.3,9.9c1.6,1.7,8.9,5.6,12.4-1L41.6,45.9L41.6,45.9z"/>
	<path fill="#463014" d="M41.3,46.4c2.2,3.3,7.7,1.4,7.6-2.1c0,0-3.7,2-6.9-1.7c-1.9-2.2-8-8.2-16.2-6.2
		C31.4,37.6,38.9,42.8,41.3,46.4L41.3,46.4z"/>
	<path fill="#463014" d="M24.9,55.7c0.5,0.3,2.4,2.2,2.4,5.1c0,1.4-0.1,8.7-0.9,13.1c1.1,0.7,1.8,0.8,2.9,1.6
		c0.5-5.1,0.9-12.5,0.7-15.5c-0.2-3.4-2-5.7-3.7-6.7c-0.5-0.3-1.1-0.6-1.6-0.9c-2.9-1.6-5.9-3.2-5.9-6c0-2.2,0.8-2.8,1.7-3.6
		l0.1-0.1c0.6-0.5,1.3-1,1.7-1.9c1.1-2.4,1.3-8.6,0-10.2c-0.6-0.8-2.3-3.4-1.8-5.2c0.2-0.7,0.6-1.2,1.3-1.5c0.7-0.4,1.7-0.6,2.9-0.6
		c2.4,0,5.1,0.7,6.4,1.2c4.9,1.5,10.8,6,12.5,7.4c0,0,0.1,0.1,0.1,0.1l1.1,0.8l-0.7-1.1c0-0.1-4.3-7.1-12-9.7
		c-1.5-0.5-4.4-1.3-7.3-1.3c-1.7,0-3.2,0.3-4.3,0.9c-1.4,0.7-2.4,1.9-2.8,3.3c-1,3.6,2.2,7.5,2.3,7.6c0.4,0.7,0.5,5.4-0.3,7.3
		c-0.1,0.3-0.4,0.5-0.8,0.9c-0.1,0.1-0.3,0.2-0.4,0.3c-1.2,0.9-3,2.3-3,5.4c0,4.3,4.4,6.7,7.9,8.5C23.9,55.2,24.4,55.4,24.9,55.7z"
		/>
	<path fill="#463014" d="M25.6,22.5c-1.9-1.6-0.5-3-0.6-4.8c-0.1-0.9-0.2-1.8-0.5-2.3c-1.7-2.7-5.8-3.6-5.9-3.6l-1.9-0.4L18,10
		c0.2-0.2,5.4-5.2,13.4-2.6c5.6,1.8,9.8,8,10,8.2L38.6,17c0-0.1-3.3-5.9-8.2-7.4c-3.9-1.3-7.5-0.1-9.1,0.7c1.6,0.7,3.8,1.8,5.1,3.9
		c0.6,1,0.7,2.2,0.8,3.4c0.1,1.6,0.3,3,1.4,4L25.6,22.5z"/>
	<path fill="#463014" d="M25.5,22.9l-0.1-0.1c-1.4-1.2-1.1-2.3-0.9-3.4c0.1-0.5,0.2-1,0.2-1.6c-0.1-0.9-0.1-1.8-0.4-2.2
		c-1.6-2.6-5.6-3.4-5.7-3.4l-2.4-0.5l1.6-1.9c0,0,3.4-3.4,9-3.4c1.5,0,3.1,0.3,4.7,0.8c5.9,1.9,10.1,8.3,10.1,8.4l0.2,0.3l-3.3,1.6
		l-0.1-0.2c-0.4-0.6-3.5-5.8-8-7.3c-1.1-0.4-2.3-0.5-3.5-0.5c-2.2,0-3.9,0.6-4.8,1c1.5,0.7,3.4,1.9,4.6,3.8c0.6,1,0.8,2.3,0.9,3.5
		c0.1,1.5,0.2,2.9,1.3,3.8l0.4,0.3L25.5,22.9L25.5,22.9z"/>
	<path fill="#463014" d="M33,19.6c0,0-0.8-3.3-2.9-5c-3-2.4-6.6-1.1-6.6-1.1L23,11.9c0.2-0.1,4.3-1.4,8.1,1.3
		c3.8,2.7,4.3,5.1,4.3,5.4L33,19.6L33,19.6z"/>
	<path fill="#463014" d="M32.8,20l-0.1-0.3c0,0-0.8-3.2-2.8-4.8c-1.1-0.9-2.5-1.4-4.1-1.4c-1.2,0-2.2,0.3-2.3,0.3l-0.3,0.1l-0.7-2.2
		l0.3-0.1c0.1,0,1.2-0.4,2.8-0.4c2.1,0,4,0.6,5.6,1.7c3.9,2.8,4.4,5.3,4.5,5.6l0,0.2L32.8,20L32.8,20z M25.9,12.8
		c1.7,0,3.2,0.5,4.5,1.5c1.8,1.4,2.6,3.9,2.9,4.8l1.9-0.8c-0.2-0.7-0.9-2.7-4.2-5c-1.5-1.1-3.3-1.6-5.3-1.6c-1.1,0-1.9,0.2-2.3,0.3
		l0.3,1.1C24.1,13,24.9,12.8,25.9,12.8z M43.4,90.7c-0.8,0-1.7-0.3-2.3-0.8c-0.5-0.4-2-1.8-2.7-3.5c-0.3-0.6-0.2-1.2,0.2-1.5
		c0.3-0.3,0.8-0.6,1.8-0.6h0.8c0.9,0,2.4,0,3.7,0h1.3c0.8,0,1.4,0.2,1.7,0.5c0.4,0.4,0.3,1,0.2,1.3c-0.2,0.5-1.1,2.2-2.5,3.8
		C45.1,90.4,44.3,90.7,43.4,90.7L43.4,90.7z M44.3,46.6l-3-0.2c0,0,0.8,1.4,1.3,3.1c0.6,2-0.5,4.9-0.5,4.9S46.1,49.8,44.3,46.6z
		 M40.5,98.7c-10.8-0.8-14.6-11.1-14.6-13.2h2.8h-1.4h1.4c0,0.9,2.9,9.7,12,10.4L40.5,98.7L40.5,98.7z"/>
	<path fill="#FFFFFF" d="M37.5,80.4c-0.2-1-0.2-1.9,0-2.8c-0.8-0.6-2.3-0.8-3.4-1.2c-0.9-0.6-5.5,0.6-8.9-3.5
		c-4.2-5.1-3.3-8.1-3.3-8.1c-1.1,1.2-2.1,0.7-3.8,6.3c-1.6,5.6,0.8,9.5,5.3,13.4c2.1,1.8,5.1,2.6,7.7,2.9c-0.9-0.9,1.5-1,3.1-1.6
		c-0.1-1.3,0.1-2.6,1.1-3.6c0.6-0.6,1.3-1,2.1-1.3c0-0.1,0.1-0.2,0.1-0.3C37.5,80.6,37.5,80.5,37.5,80.4z"/>
	<path fill="#C9C9C9" d="M34.2,85.8C34.1,85.6,34,85.3,34,85c-0.1-0.3-0.4-1.2,0-0.2c-0.1-0.3-0.2-0.5-0.3-0.8
		c-7.3,0-13.7-5-12.4-15.6C20.3,67.2,19,71,19,71s-3.7,10.6,5.8,14.7c3.1,1.4,5.9,2.4,6.6,2c1.4,0.3,2.6-0.7,3.1-1.3
		C34.4,86.2,34.3,86,34.2,85.8L34.2,85.8z"/>
	<path fill="#463014" d="M37.4,78.9c0-0.9,0.2-1.8,0.6-2.6c0-0.1,0.1-0.1,0.1-0.2c-2.8,0-6.1-0.3-8.8-1.4c-3-1.2-6.8-5.4-7.5-10.2
		c0,0-5.7,4.4-4,13.8c1.6,8.9,9,11.7,17.4,12.2c0-0.1-1-2-0.6-3.2c-4.8,0.3-10.2-1.5-12.8-5.8C19.4,77.6,20.1,71,21.1,70
		C23.4,77.5,32,79,37.4,78.9z"/>
	<path fill="#463014" d="M38.2,73.5c-1.5,4.5-4.6,8.1-4.6,8.1s4.3-0.2,4.5-1c0.2-0.6,3.9-9.2,5.3-19.3
		C42.1,63.5,38.4,73.1,38.2,73.5L38.2,73.5z"/>
	<path fill="#E78724" d="M62.4,63.2c0,0,4.8,7.4,8.4,12.7c0.5,0.8-3.6,0.9-3.6,0.9L62.4,63.2L62.4,63.2z M60.1,47.9
		c0,0,1.5,3.6,2.3,5.6c0.9,2.1,4.2,3.1,4.2,3.1s-1.7-1.8-1.7-6.4c0-1.9-2.5-2.7-2.5-2.7L60.1,47.9L60.1,47.9z"/>
	<path fill="#E78724" d="M61.6,49.9c0,0,3,3.6,8.5,1.6s6.1-9.1,6.1-11.1c0-2-10.5,2-12,2.8C62.9,44.1,60.2,47.5,61.6,49.9L61.6,49.9
		z M82.6,11.9c0,0-5.1-1-8.5,1.7c-3.4,2.7-4.4,4.8-4.4,4.8l5.8,4.6c0,0,2.8-1.3,3.6-5C79.9,14.3,79.3,12.6,82.6,11.9L82.6,11.9z"/>
	<path fill="#E78724" d="M63.1,39.6c2.2-3.1,5.8-4.5,8.8-4.7c5-0.4,7.3,1.4,7.3,1.4s-8.1,0.3-10.5,3.4C64.4,45.4,58,45.9,57,44.6
		c1.2,0.1,2.5-0.5,3.8-1.8C61.7,42,62.4,40.6,63.1,39.6z M76.8,50.7c0,0,9-3.1,7.3-6.2s-0.3-4.8-0.3-4.8s5,3.8,3.7,7.7
		c-0.8,2.4-2.1,4.2-9.4,7.6c-3.5,6.5-0.7,18.1-0.9,18.1c-0.3,0.1-4.9-2.3-4.6-13.2C72.8,56.7,73,52.1,76.8,50.7z M65,17.5
		C68.8,19.4,74,22,74,22l-2,1c0.2,0.3,0.3,0.5,0.3,0.5l-2.1,1c0,0-5.1,3.7-8.2,6.1c1-3.2,4.1-8.2,4.1-8.2S66.9,20,65,17.5z
		 M52.5,95.6c11.6,0,15.5-5.9,15.5-5.9l-1.8,4.4c-0.7,1.9-8,7.9-13.7,7.9"/>
	<path fill="#E78724" d="M66.7,85.7c0,0-1.1,6.5-5.3,6.5c-3.6,0-4.7-5.5-4.7-6.6L66.7,85.7z M73.8,75.9c-0.4-1-1.7-5.3-2.1-9.1
		c-0.5-4.6-0.3-11.3-0.3-11.3s1.1,4.4,2.1,5.1c1,0.7,2.8,5.6,2.8,5.6s1,7.2,1.5,9.6C76.5,76,75.4,75.3,73.8,75.9L73.8,75.9z
		 M84.2,47.3c0,0-2.4-0.9-3.1-6.1c-0.7-5.3,0.9-9.8,0.9-9.8s-0.1,7.3,0.7,8.7c0.9,1.4,1.6,1.9,2.6,3.7
		C86.2,45.6,84.7,46.8,84.2,47.3z"/>
	<path fill="#FDC168" d="M81.3,13.1l0.5-0.3C83.2,12.9,81.3,13.1,81.3,13.1z"/>
	<path fill="#FBA919" d="M63,15.9c0,0,2.3-0.4,3.4-2.1c1.1-1.7,4.4-5.1,9.5-5.2c5.1,0,10.2,1.4,10.2,1.4l-4.4,2.8
		c-0.5,0-1.3,0-2.7,0c-5.6,0.2-6.4,5.7-6.4,5.7L53,15.8"/>
	<path fill="#FFFFFF" d="M61.1,46.4c0,0,2.7,2.7,6.7,1.8s6.6-2.7,6.7-5.8S73.8,38,73.8,38s-4.6,1.4-6.7,3.3
		C64.8,43.2,63.2,46.3,61.1,46.4z"/>
	<path fill="#C9C9C9" d="M64.4,45.4c0,0,2.3,1.1,4.9,0.2c3.4-1.1,3.6-4.6,3.6-4.6s2.1,6.1-3.7,7.2c-4.7,0.9-7.4-1.8-7.4-1.8
		L64.4,45.4L64.4,45.4z"/>
	<path fill="#463014" d="M79.4,22.5c1.9-1.6,0.5-3,0.6-4.8c0.1-0.9,0.2-1.8,0.5-2.3c1.7-2.7,5.8-3.6,5.9-3.6l1.9-0.4L87,10
		c-0.2-0.2-5.4-5.2-13.4-2.6c-5.6,1.8-9.8,8-10,8.2l2.8,1.3c0-0.1,3.3-5.9,8.2-7.4c3.9-1.3,7.5-0.1,9.1,0.7
		c-1.6,0.7-3.8,1.8-5.1,3.9c-0.6,1-0.7,2.2-0.8,3.4c-0.1,1.6-0.3,3-1.4,4L79.4,22.5L79.4,22.5z M84.5,45.3c0,0-2.4-2.9-3.1-8.7
		c-0.3-2.3,0.2-6.7,1-8.4c-0.1,4.2,0.9,8.4,0.9,8.4S84,44.5,84.5,45.3z"/>
	<path fill="#463014" d="M72,19.6c0,0,0.8-3.3,2.9-5c3-2.4,6.6-1.1,6.6-1.1l0.5-1.6c-0.2-0.1-4.3-1.4-8.1,1.3
		c-3.8,2.7-4.3,5.1-4.3,5.4L72,19.6z M77,43.2c0,0,1.2-1.8,1-3.7c-0.1-1-0.6-2-1.4-2.3c-1.5-0.7-2.1,1-2.1,1S76.6,38.7,77,43.2
		L77,43.2z"/>
	<path fill="#463014" d="M63.4,45.9c-0.1,0.1-0.1,0.2-0.1,0.2s3.9,2.9,7.9,0c2.1-1.6,1.9-5.5,1.3-7.2c-1.7,0.4-3.1,1.1-4.3,1.9
		c1.5-1.4,2.8-2.4,2.8-2.4l1.7-0.5l3.4-1.2c0,0.3,1.3,6-2.3,9.9c-1.6,1.7-8.9,5.6-12.4-1L63.4,45.9L63.4,45.9z"/>
	<path fill="#463014" d="M63.7,46.4c-2.2,3.3-7.7,1.4-7.6-2.1c0,0,3.7,2,6.9-1.7c1.9-2.2,8-8.2,16.2-6.2
		C73.6,37.6,66.1,42.8,63.7,46.4L63.7,46.4z"/>
	<path fill="#463014" d="M80.1,55.7c-0.5,0.3-2.4,2.2-2.4,5.1c0,1.4,0.1,8.7,0.9,13.1c-1.1,0.7-1.8,0.8-2.9,1.6
		c-0.5-5.1-0.9-12.5-0.7-15.5c0.2-3.4,2-5.7,3.7-6.7c0.5-0.3,1.1-0.6,1.6-0.9c2.9-1.6,5.9-3.2,5.9-6c0-2.2-0.8-2.8-1.7-3.6l-0.1-0.1
		c-0.6-0.5-1.3-1-1.7-1.9c-1.1-2.4-1.3-8.6,0-10.2c0.6-0.8,2.3-3.4,1.8-5.2c-0.2-0.7-0.6-1.2-1.3-1.5c-0.7-0.4-1.7-0.6-2.9-0.6
		c-2.4,0-5.1,0.7-6.4,1.2c-4.9,1.6-10.8,6-12.5,7.4c0,0-0.1,0.1-0.1,0.1l-1.1,0.8l0.7-1.1c0-0.1,4.3-7.1,12-9.7
		c1.5-0.5,4.4-1.3,7.3-1.3c1.7,0,3.2,0.3,4.3,0.9c1.4,0.7,2.4,1.9,2.8,3.3c1,3.6-2.2,7.5-2.3,7.6c-0.4,0.7-0.5,5.4,0.3,7.3
		c0.1,0.3,0.4,0.5,0.8,0.9c0.1,0.1,0.3,0.2,0.4,0.3c1.2,0.9,3,2.3,3,5.4c0,4.3-4.4,6.7-7.9,8.5C81.1,55.2,80.6,55.4,80.1,55.7
		L80.1,55.7z"/>
	<path fill="#463014" d="M74.8,22c-0.7-1.2-2.5-3.5-6.6-5.5c-4.6-2.2-9.9-3.4-15.8-3.4l0,0h0l0,0c-5.9,0-11.2,1.1-15.8,3.4
		c-4.1,2-5.9,4.3-6.6,5.5l-0.3,0.4l3.5,0.8l0.1-0.1l0.1-0.1c0.1-0.2,0.5-1.5,4.4-3.4c4.2-2,9.1-3.1,14.5-3.1c5.4,0,10.3,1,14.5,3.1
		c3.9,1.9,4.4,3.2,4.4,3.4l0.1,0.1l0.1,0.1l3.5-0.8L74.8,22L74.8,22z"/>
	<path fill="#463014" d="M79.4,22.5c1.9-1.6,0.5-3,0.6-4.8c0.1-0.9,0.2-1.8,0.5-2.3c1.7-2.7,5.8-3.6,5.9-3.6l1.9-0.4L87,10
		c-0.2-0.2-5.4-5.2-13.4-2.6c-5.6,1.8-9.8,8-10,8.2l2.8,1.3c0-0.1,3.3-5.9,8.2-7.4c3.9-1.3,7.5-0.1,9.1,0.7
		c-1.6,0.7-3.8,1.8-5.1,3.9c-0.6,1-0.7,2.2-0.8,3.4c-0.1,1.6-0.3,3-1.4,4L79.4,22.5L79.4,22.5z"/>
	<path fill="#463014" d="M75.8,21.7l0.4-0.3c1.1-0.9,1.2-2.3,1.3-3.8c0.1-1.2,0.2-2.5,0.9-3.5c1.2-1.9,3.1-3,4.6-3.8
		c-0.9-0.4-2.7-1-4.8-1c-1.2,0-2.3,0.2-3.5,0.5c-4.5,1.4-7.7,6.7-8,7.3l-0.1,0.2l-3.3-1.6l0.2-0.3c0-0.1,4.2-6.5,10.1-8.4
		c1.6-0.5,3.2-0.8,4.7-0.8c5.7,0,9,3.4,9,3.4l1.6,1.9l-2.4,0.5c0,0-4,0.8-5.7,3.4c-0.3,0.4-0.3,1.3-0.4,2.2c0,0.5,0.1,1.1,0.2,1.6
		c0.2,1.1,0.5,2.2-0.9,3.4l-0.1,0.1L75.8,21.7L75.8,21.7z"/>
	<path fill="#463014" d="M72,19.6c0,0,0.8-3.3,2.9-5c3-2.4,6.6-1.1,6.6-1.1l0.5-1.6c-0.2-0.1-4.3-1.4-8.1,1.3
		c-3.8,2.7-4.3,5.1-4.3,5.4L72,19.6z"/>
	<path fill="#463014" d="M69.2,18.8l0-0.2c0-0.3,0.5-2.8,4.5-5.6c1.6-1.1,3.6-1.7,5.6-1.7c1.6,0,2.7,0.3,2.8,0.4l0.3,0.1l-0.7,2.2
		l-0.3-0.1c-0.1,0-1-0.3-2.3-0.3c-1.6,0-3,0.5-4.1,1.4c-2,1.6-2.8,4.8-2.8,4.8L72.2,20L69.2,18.8L69.2,18.8z M81.3,13.1l0.3-1.1
		c-0.4-0.1-1.3-0.3-2.3-0.3c-2,0-3.7,0.5-5.3,1.6c-3.2,2.3-4,4.3-4.2,5l1.9,0.8c0.3-0.9,1.1-3.4,2.9-4.8c1.2-1,2.8-1.5,4.5-1.5
		C80.1,12.8,80.9,13,81.3,13.1L81.3,13.1z M59.4,89.8c-1.5-1.6-2.3-3.3-2.5-3.8c-0.1-0.3-0.3-0.9,0.2-1.3c0.3-0.3,0.9-0.5,1.7-0.5
		H60c1.3,0,2.8,0,3.7,0h0.8c1.1,0,1.6,0.3,1.8,0.6c0.4,0.4,0.4,0.9,0.2,1.5c-0.7,1.7-2.2,3.1-2.7,3.5c-0.6,0.5-1.5,0.8-2.3,0.8
		C60.7,90.7,59.9,90.4,59.4,89.8L59.4,89.8z M60.7,46.6l3-0.2c0,0-0.8,1.4-1.3,3.1c-0.6,2,0.5,4.9,0.5,4.9S58.9,49.8,60.7,46.6z"/>
	<path fill="#E78724" d="M52.5,35.7c-1.9,0-4.5-0.1-6.4-1.4c0,0,2.5,4.3,6.4,4.3l0-0.5l0,0.5c3.9,0,6.4-4.3,6.4-4.3
		C57,35.6,54.4,35.7,52.5,35.7z"/>
	<path fill="#463014" d="M57.8,35.7c-1.9,1.2-3.7,1.6-5.3,1.6c-1.7,0-3.4-0.4-5.3-1.6c0,0,2.8,3.5,5.3,3.5v0c0,0,0,0,0,0s0,0,0,0v0
		C55,39.1,57.8,35.7,57.8,35.7z M64.5,98.7l-0.2-2.8c9.1-0.7,12-9.4,12-10.4h2.8C79.1,87.7,75.3,97.9,64.5,98.7z"/>
	<path fill="#FFFFFF" d="M67.5,80.4c0.2-1,0.2-1.9,0-2.8c0.8-0.6,2.3-0.8,3.4-1.2c0.9-0.6,5.5,0.6,8.9-3.5c4.2-5.1,3.3-8.1,3.3-8.1
		c1.1,1.2,2.1,0.7,3.8,6.3c1.6,5.6-0.8,9.5-5.3,13.4c-2.1,1.8-5.1,2.6-7.7,2.9c0.9-0.9-1.5-1-3.1-1.6c0.1-1.3-0.1-2.6-1.1-3.6
		c-0.6-0.6-1.3-1-2.1-1.3c0-0.1-0.1-0.2-0.1-0.3C67.5,80.6,67.5,80.5,67.5,80.4L67.5,80.4z"/>
	<path fill="#C9C9C9" d="M70.8,85.8c0.1-0.3,0.2-0.6,0.2-0.8c0.1-0.3,0.4-1.2,0-0.2c0.1-0.3,0.2-0.5,0.3-0.8c7.3,0,13.7-5,12.4-15.6
		c1-1.3,2.3,2.6,2.3,2.6s3.7,10.6-5.8,14.7c-3.1,1.4-5.9,2.4-6.6,2C72.3,88,71,87,70.6,86.4C70.6,86.2,70.7,86,70.8,85.8L70.8,85.8z
		"/>
	<path fill="#463014" d="M67.6,78.9c0-0.9-0.2-1.8-0.6-2.6c0-0.1-0.1-0.1-0.1-0.2c2.8,0,6.1-0.3,8.8-1.4c3-1.2,6.8-5.4,7.5-10.2
		c0,0,5.7,4.4,4,13.8c-1.6,8.9-9,11.7-17.4,12.2c0-0.1,1-2,0.6-3.2c4.8,0.3,10.2-1.5,12.8-5.8c2.4-3.9,1.7-10.6,0.7-11.5
		C81.6,77.5,73,79,67.6,78.9L67.6,78.9z"/>
	<path fill="#463014" d="M71.1,81.1c-1-1.1-2.9-2.4-7.1-2.4l-11.4,0h0c-3.3,0-11.4,0-11.4,0c-4.3,0-6.1,1.3-7.1,2.4
		c-1.5,1.6-1.7,3.8-0.7,6.6c2.7,7.4,6.5,14.8,19.2,14.8l0,0c0,0,0,0,0,0s0,0,0,0l0,0c12.7,0,16.5-7.5,19.2-14.8
		C72.8,84.9,72.5,82.7,71.1,81.1L71.1,81.1z M69.1,87.2c-1.3,3.7-4.8,12.6-16.6,12.6c-11.8,0-15.3-9-16.6-12.6
		c-0.7-2-0.7-3.6,0.2-4.5c0.6-0.6,1.9-1.4,4.8-1.4H44c2.3,0,5.1,0,8.5,0c3.4,0,6.2,0,8.5,0h3.1c3,0,4.2,0.8,4.8,1.4
		C69.7,83.6,69.8,85.1,69.1,87.2L69.1,87.2z"/>
	<path fill="#463014" d="M66.8,73.5c1.5,4.5,4.6,8.1,4.6,8.1s-4.3-0.2-4.5-1c-0.2-0.6-3.9-9.2-5.3-19.3
		C62.9,63.5,66.6,73.1,66.8,73.5L66.8,73.5z"/>
</g>
</svg>
