<?xml version="1.0" encoding="utf-8"?>
<!-- Generator: Adobe Illustrator 18.1.1, SVG Export Plug-In . SVG Version: 6.00 Build 0)  -->
<svg version="1.1" id="Layer_1" xmlns="http://www.w3.org/2000/svg" xmlns:xlink="http://www.w3.org/1999/xlink" x="0px" y="0px"
	 viewBox="0 0 105 105" enable-background="new 0 0 105 105" xml:space="preserve">
<g id="Page-1">
	<g id="gulp">
		<g id="Gulp-Logo" transform="translate(0.000000, 1.000000)">
			<path id="Cup" fill="#DA4648" d="M52.3,81.6c-6.1,0-10.8-0.9-13.1-1.5c-1.5-0.4-2.8-0.8-3.7-1.2l3,5.2l1.2,16.1
				c0,1.8,5.7,3.3,12.8,3.3s12.8-1.5,12.8-3.3l0.9-16.3l2.9-5c-0.9,0.4-2.2,0.8-3.8,1.2C63.1,80.7,58.4,81.6,52.3,81.6z M69.2,29.1
				c-4.5,0.6-10.4,1-16.7,1s-12.2-0.3-16.7-1c-2.2-0.3-4-0.7-5.2-1.1c-0.3-0.1-0.8-0.3-1.3-0.5L32.1,53c0.1-0.4,0.3-0.9,0.4-1.3
				c0.3-0.9,0.7-1.8,1.1-2.6c0.4-0.9,0.9-1.7,1.4-2.4c0.5-0.8,1-1.5,1.6-2.1c0.6-0.6,1.1-1.2,1.7-1.7c0.6-0.5,1.2-0.8,1.8-1.1
				c0.6-0.3,1.2-0.4,1.8-0.4c0.7,0,1.4,0.2,2,0.6c0.6,0.4,1.2,1,1.8,1.8c0.1,0.2,0.2,0.4,0.2,0.6c0,0.2,0.1,0.4,0.1,0.5
				c0,0.4-0.1,0.7-0.3,1c-0.2,0.2-0.4,0.3-0.7,0.3c-0.2,0-0.5-0.1-0.7-0.4c-0.2-0.3-0.4-0.6-0.7-1.1c-0.2-0.4-0.5-0.7-0.8-0.9
				c-0.3-0.2-0.6-0.3-0.9-0.3c-0.5,0-1.1,0.2-1.7,0.7c-0.6,0.4-1.2,1-1.8,1.7c-0.6,0.7-1.2,1.5-1.7,2.5c-0.5,0.9-1,1.9-1.4,2.8
				c-0.4,1-0.7,1.9-1,2.9c-0.2,0.9-0.4,1.8-0.4,2.5c0,0.3,0,0.5,0.1,0.8c0,0.3,0.1,0.5,0.2,0.7c0.1,0.2,0.2,0.4,0.4,0.5
				c0.2,0.1,0.4,0.2,0.6,0.2c0.3,0,0.6-0.1,1-0.3c0.4-0.2,0.7-0.4,1.1-0.7c0.4-0.3,0.8-0.6,1.2-1c0.4-0.4,0.7-0.8,1.1-1.2
				c0.3-0.4,0.6-0.8,0.9-1.1c0.3-0.4,0.4-0.7,0.6-0.9l1.1-3.2c0.1-0.3,0.3-0.6,0.5-0.7c0.2-0.1,0.4-0.2,0.6-0.2c0.1,0,0.2,0,0.3,0.1
				c0.1,0,0.2,0.1,0.3,0.2c0.1,0.1,0.1,0.2,0.2,0.3c0,0.1,0.1,0.3,0.1,0.4c0,0.4,0,0.8-0.1,1.2c-0.1,0.4-0.2,0.7-0.3,1.1
				c-0.1,0.4-0.2,0.7-0.4,1.1c-0.1,0.4-0.3,0.7-0.4,1.1c0,0-0.1,0.2-0.2,0.4c-0.1,0.2-0.2,0.5-0.3,0.9c-0.1,0.4-0.2,0.8-0.4,1.2
				c-0.1,0.4-0.3,0.9-0.4,1.4c-0.1,0.5-0.3,0.9-0.4,1.4c-0.1,0.4-0.2,0.8-0.3,1.2c-0.1,0.4-0.2,0.7-0.3,0.9
				c-0.1,0.2-0.1,0.4-0.1,0.4c0,0.1-0.1,0.3-0.2,0.5c-0.1,0.2-0.2,0.3-0.3,0.5c-0.1,0.2-0.2,0.3-0.4,0.4c-0.1,0.1-0.3,0.2-0.4,0.2
				c-0.2,0-0.4-0.1-0.5-0.2c-0.1-0.2-0.2-0.5-0.2-0.9v-0.2c0-0.1,0-0.1,0-0.2c0-0.1,0.1-0.4,0.2-0.8c0.1-0.4,0.2-0.8,0.4-1.3
				c0.1-0.5,0.3-1,0.5-1.5c0.2-0.5,0.3-1,0.5-1.4c-0.4,0.4-0.8,0.9-1.3,1.3c-0.5,0.4-0.9,0.8-1.4,1.2c-0.5,0.4-1,0.6-1.5,0.9
				c-0.5,0.2-1,0.3-1.4,0.3c-0.5,0-1-0.1-1.4-0.3c-0.1,0-0.1-0.1-0.2-0.1L34.4,77c0.4,1,8,3.5,17.9,3.5c10,0,17.5-2.5,17.9-3.5
				l2.2-19.2c-0.2,0.2-0.4,0.3-0.5,0.5c-0.6,0.6-1.2,1.1-1.8,1.5c-0.6,0.4-1.1,0.8-1.7,1c-0.5,0.2-1.1,0.3-1.7,0.3
				c-0.6,0-1-0.1-1.3-0.4c-0.3-0.3-0.5-0.6-0.5-1v-0.1c0,0,0-0.1,0-0.1c0-0.3,0.1-0.6,0.4-0.9c0.2-0.3,0.4-0.7,0.7-1.1
				c0.3-0.4,0.6-0.8,0.9-1.1c0.3-0.4,0.6-0.7,0.9-1.1c0.3-0.3,0.5-0.7,0.7-0.9c0.2-0.3,0.3-0.5,0.3-0.7c0-0.1,0-0.2-0.1-0.3
				c-0.1-0.1-0.2-0.1-0.4-0.1c-0.3,0-0.6,0.1-0.9,0.2c-0.3,0.2-0.6,0.4-1,0.6c-0.3,0.3-0.6,0.6-0.9,0.9c-0.3,0.3-0.6,0.7-0.8,1.1
				c-0.3,0.4-0.5,0.7-0.7,1.1c-0.2,0.4-0.4,0.7-0.6,1c0,0.1-0.1,0.2-0.2,0.4c-0.1,0.2-0.2,0.4-0.3,0.6c-0.1,0.2-0.2,0.5-0.3,0.7
				c-0.1,0.2-0.2,0.5-0.3,0.7c-0.1,0.2-0.2,0.4-0.2,0.6c-0.1,0.2-0.1,0.3-0.2,0.3c0,0.1-0.1,0.2-0.2,0.5c-0.1,0.2-0.2,0.5-0.3,0.8
				c-0.1,0.3-0.2,0.6-0.4,0.9c-0.1,0.3-0.2,0.6-0.4,0.9c-0.1,0.3-0.2,0.6-0.3,0.8c-0.1,0.2-0.1,0.4-0.2,0.5
				c-0.1,0.2-0.2,0.5-0.3,0.7c-0.1,0.2-0.2,0.4-0.4,0.5c-0.1,0.2-0.3,0.3-0.5,0.4c-0.2,0.1-0.4,0.1-0.6,0.1c-0.3,0-0.5-0.1-0.7-0.2
				c-0.2-0.1-0.3-0.4-0.3-0.7c0-0.2,0-0.4,0.1-0.6c0-0.2,0.1-0.4,0.2-0.6c0.1-0.2,0.1-0.4,0.2-0.5c0.1-0.2,0.1-0.3,0.2-0.5
				c0.4-0.9,0.8-1.8,1.2-2.7c0.4-0.9,0.8-1.8,1.2-2.7c0.1-0.2,0.2-0.4,0.2-0.5c0,0,0,0-0.1,0.1c-0.5,0.5-1,0.9-1.5,1.3
				c-0.5,0.4-1,0.7-1.5,0.9c-0.5,0.2-0.9,0.3-1.4,0.3c-0.3,0-0.6,0-0.8-0.1c-0.2-0.1-0.4-0.2-0.5-0.4c-0.1-0.2-0.2-0.4-0.3-0.6
				c0-0.1,0-0.2,0-0.2c-0.1,0.1-0.3,0.2-0.4,0.3c-0.5,0.3-0.9,0.6-1.4,0.8c-0.5,0.2-0.9,0.3-1.2,0.3c-0.4,0-0.7-0.1-0.9-0.4
				c-0.2-0.2-0.3-0.7-0.3-1.2c0-0.4,0.1-0.9,0.2-1.4c-0.2,0.3-0.4,0.7-0.7,1.1c-0.3,0.4-0.6,0.7-1,1c-0.4,0.3-0.8,0.5-1.3,0.7
				c-0.5,0.2-1,0.3-1.5,0.3c-0.2,0-0.5,0-0.7-0.1c-0.2-0.1-0.4-0.2-0.6-0.3c-0.2-0.2-0.3-0.4-0.4-0.6c-0.1-0.3-0.2-0.6-0.2-1
				c0,0,0-0.1,0-0.4c0-0.3,0.1-0.7,0.3-1.2c0.2-0.6,0.4-1.3,0.8-2.2c0.3-0.9,0.8-2,1.4-3.3c0.2-0.3,0.3-0.6,0.5-0.7
				c0.2-0.1,0.4-0.2,0.7-0.2c0.1,0,0.2,0,0.3,0c0.1,0,0.2,0.1,0.3,0.1c0.1,0.1,0.2,0.2,0.2,0.3c0.1,0.1,0.1,0.2,0.1,0.4
				c0,0.1,0,0.2,0,0.3c0,0.2-0.1,0.4-0.2,0.6c-0.1,0.2-0.3,0.5-0.4,0.8c-0.2,0.3-0.3,0.7-0.5,1c-0.2,0.4-0.4,0.7-0.5,1.1
				c-0.2,0.4-0.3,0.8-0.4,1.2s-0.2,0.8-0.2,1.2c0,0.2,0,0.3,0.1,0.4c0.1,0.1,0.2,0.2,0.4,0.2c0.5,0,1-0.2,1.4-0.5
				c0.4-0.3,0.9-0.7,1.2-1.2c0.4-0.5,0.7-1,1-1.5c0.3-0.6,0.6-1.1,0.8-1.5c0.1-0.3,0.3-0.6,0.4-1c0.1-0.3,0.2-0.7,0.4-1
				c0.1-0.3,0.3-0.5,0.4-0.7c0.2-0.2,0.4-0.3,0.6-0.3c0.3,0,0.5,0.1,0.6,0.3c0.2,0.2,0.2,0.5,0.2,0.7c0,0.2-0.1,0.4-0.2,0.7
				c-0.1,0.3-0.2,0.6-0.4,1c-0.2,0.4-0.3,0.8-0.5,1.2c-0.2,0.4-0.4,0.8-0.5,1.3c-0.2,0.4-0.3,0.8-0.4,1.2c-0.1,0.4-0.2,0.8-0.2,1.1
				c0,0.3,0.2,0.5,0.5,0.5c0.2,0,0.5-0.1,0.9-0.2c0.3-0.2,0.7-0.4,1.1-0.7c0.1-0.1,0.2-0.1,0.3-0.2c0.1-0.4,0.2-0.8,0.4-1.2
				c0.3-0.7,0.5-1.4,0.8-2.1c0.3-0.7,0.5-1.3,0.7-1.9l3.4-8.7c0.1-0.3,0.3-0.6,0.5-0.7c0.2-0.1,0.5-0.2,0.7-0.2
				c0.2,0,0.4,0.1,0.6,0.2c0.2,0.2,0.3,0.4,0.3,0.7c0,0.2,0,0.3-0.1,0.5c-0.1,0.2-0.1,0.4-0.2,0.6c-0.2,0.4-0.4,0.9-0.7,1.5
				c-0.3,0.6-0.5,1.3-0.8,2c-0.3,0.7-0.6,1.5-0.9,2.2c-0.3,0.8-0.6,1.5-0.9,2.3c-0.3,0.7-0.6,1.4-0.8,2.1c-0.3,0.7-0.5,1.2-0.7,1.7
				c-0.1,0.2-0.2,0.4-0.2,0.7c-0.1,0.3-0.1,0.5-0.1,0.7c0,0.1,0,0.2,0.1,0.3c0,0.1,0.1,0.1,0.3,0.1c0.2,0,0.4-0.1,0.6-0.2
				c0.2-0.1,0.5-0.3,0.8-0.4c0.3-0.2,0.6-0.4,0.9-0.6c0.3-0.2,0.6-0.5,0.9-0.7c0.3-0.3,0.6-0.5,0.8-0.8c0.3-0.3,0.5-0.5,0.7-0.7
				c0-0.1,0.1-0.1,0.2-0.1c0.1-0.4,0.2-0.8,0.3-1.1c0.1-0.2,0.1-0.4,0.2-0.7c0.1-0.3,0.2-0.6,0.4-0.9c0.1-0.3,0.3-0.5,0.5-0.7
				c0.2-0.2,0.4-0.3,0.6-0.3c0.3,0,0.5,0.1,0.7,0.2c0.1,0.1,0.2,0.3,0.2,0.6c0,0.1,0,0.1,0,0.3c0,0.1,0,0.2-0.1,0.4
				c0,0.1,0,0.3-0.1,0.4c0,0.1-0.1,0.2-0.1,0.3c0.3-0.3,0.6-0.6,0.9-0.9c0.3-0.3,0.7-0.6,1-0.8c0.3-0.2,0.7-0.4,1.1-0.6
				c0.4-0.2,0.7-0.2,1.1-0.2c0.2,0,0.5,0,0.7,0.1c0.2,0.1,0.5,0.2,0.7,0.3c0.2,0.1,0.4,0.3,0.5,0.5c0.1,0.2,0.2,0.5,0.2,0.7
				c0,0.4-0.1,0.8-0.3,1.2c-0.2,0.4-0.4,0.8-0.7,1.3c-0.3,0.4-0.6,0.8-0.9,1.2c-0.3,0.4-0.6,0.8-0.9,1.1c-0.3,0.3-0.5,0.6-0.7,0.8
				c-0.2,0.2-0.3,0.4-0.3,0.5c0,0.1,0,0.2,0.1,0.3c0.1,0.1,0.2,0.1,0.3,0.1c0.1,0,0.3-0.1,0.6-0.2c0.2-0.1,0.6-0.4,1-0.7
				c0.4-0.4,1-0.8,1.7-1.4c0.5-0.4,1-0.9,1.7-1.4l3-27.8c-0.5,0.3-1,0.4-1.3,0.5C73.2,28.4,71.4,28.8,69.2,29.1z M52.5,22.5
				c-13,0-23.5,1.5-23.5,3.2S39.5,29,52.5,29S76,27.5,76,25.8S65.5,22.5,52.5,22.5z M61.9,26.7c0,0.4-1.2,0.8-2.8,0.8
				c-1.5,0-2.8-0.3-2.8-0.8c0-0.4,1.2-0.8,2.8-0.8C60.6,25.9,61.9,26.3,61.9,26.7z"/>
			<path id="Straw" fill="#DA4648" d="M56.8,26.4C56.8,26.4,56.8,26.4,56.8,26.4c0,0.3,1,0.6,2.2,0.6c1.2,0,2.2-0.2,2.2-0.5
				l2.9-11.9L75.9,2.2c0,0,0,0,0,0c0.2-0.3-0.3-1.1-1.1-1.9c-0.8-0.7-1.7-1-2-0.7c0,0,0,0,0,0L60.4,12.7L56.8,26.4z"/>
		</g>
	</g>
</g>
</svg>
