<?xml version="1.0" encoding="utf-8"?>
<!-- Generator: Adobe Illustrator 18.1.1, SVG Export Plug-In . SVG Version: 6.00 Build 0)  -->
<svg version="1.1" id="Layer_1" xmlns="http://www.w3.org/2000/svg" xmlns:xlink="http://www.w3.org/1999/xlink" x="0px" y="0px"
	 viewBox="0 0 500 300" enable-background="new 0 0 500 300" xml:space="preserve">
<g>
	<g>
		<path fill="#FFFFFF" d="M218,176.1c0,0.6-0.1,1.2-0.1,1.9l2.5-4.5l-0.3-1.5l2.5-0.4l0.9,6.3l1.1-3.9c0.1-0.4,0.1-0.7,0.1-1
			c0-0.3,0-0.6-0.1-1l2.6-0.5c0.1,0.5,0.2,1,0.1,1.5c0,0.6-0.2,1.3-0.6,2.4l-2.1,5.7h-3.1l-0.7-4.2l-2.4,4.2h-3c0.1-3.9,0-6.4-0.3-9
			l2.6-0.4C218,173.1,218.1,174.5,218,176.1z"/>
		<path fill="#FFFFFF" d="M234.3,174c-1.2,0.6-1.7,0.9-2.8,1.6l-1.2,5.5h-2.7l1.9-9.1l2.4-0.4l-0.1,1.3c0.9-0.5,1.7-0.9,2.5-1.3
			L234.3,174z"/>
		<path fill="#FFFFFF" d="M235.9,171.9l2.8-0.4l-2,9.5h-2.7L235.9,171.9z M236.7,167.8l2.8-0.4l-0.6,2.9l-2.8,0.4L236.7,167.8z"/>
		<path fill="#FFFFFF" d="M243.6,173.9l-1,4.6c0,0.1,0,0.2,0,0.2c0,0.1,0.1,0.2,0.3,0.2c0.5,0,1-0.2,1.5-0.4l0.5,1.9
			c-0.8,0.4-1.9,0.8-3,0.8c-1.4,0-2.1-0.7-2-1.8c0-0.1,0-0.3,0.1-0.4l1.1-5.2h-1.4l0.5-2.2h1.4l0.5-2.2l2.8-0.4l-0.5,2.6h2.2
			l-0.6,2.2H243.6z"/>
		<path fill="#FFFFFF" d="M246.8,175c0.5-2.1,1.5-3.5,4.4-3.5c1.8,0,3.1,0.8,3,2.3c-0.1,1.8-1,2.7-3.3,3.3c-1.1,0.3-1.2,0.3-2,0.6
			l-0.1,0.6c-0.1,0.3,0,0.7,0.5,0.7c1,0,2.4-0.5,3.7-1l0.4,1.9c-1.2,0.7-3,1.3-4.6,1.3c-1.9,0-2.7-0.8-2.7-2.4
			c0-0.3,0.1-0.7,0.2-1.1L246.8,175z M251.7,174.1c0-0.3-0.3-0.5-0.8-0.5c-1,0-1.3,0.6-1.4,1.3l-0.1,0.7c0.5-0.1,0.7-0.2,1.2-0.3
			C251.4,175,251.7,174.7,251.7,174.1z"/>
		<path fill="#FFFFFF" d="M261.2,167.9l2.8-0.4l-2.8,13.5h-2.7L261.2,167.9z"/>
		<path fill="#FFFFFF" d="M264.3,175c0.5-2.1,1.5-3.5,4.4-3.5c1.8,0,3.1,0.8,3,2.3c-0.1,1.8-1,2.7-3.3,3.3c-1.1,0.3-1.2,0.3-2,0.6
			l-0.1,0.6c-0.1,0.3,0,0.7,0.5,0.7c1,0,2.4-0.5,3.7-1l0.4,1.9c-1.2,0.7-3,1.3-4.6,1.3c-1.9,0-2.7-0.8-2.7-2.4
			c0-0.3,0.1-0.7,0.2-1.1L264.3,175z M269.2,174.1c0-0.3-0.3-0.5-0.8-0.5c-1,0-1.3,0.6-1.4,1.3l-0.1,0.7c0.5-0.1,0.7-0.2,1.2-0.3
			C268.9,175,269.2,174.7,269.2,174.1z"/>
		<path fill="#FFFFFF" d="M272,180.6l0.6-2c0.7,0.2,1.5,0.5,2.5,0.5c0.9,0,1-0.3,1.1-0.7c0.1-0.4-0.2-0.6-1.2-1.2
			c-1.9-1-2-1.7-1.7-3.1c0.4-2,1-2.5,3.6-2.5c0.9,0,2,0.2,2.8,0.4l-0.5,2c-0.7-0.2-1.7-0.3-2.3-0.3c-0.8,0-0.9,0.1-1,0.6
			c-0.1,0.4,0,0.5,0.9,1c2.1,1.1,2.4,1.5,2.1,3c-0.5,2.1-1.1,2.9-3.9,2.9C274,181.2,272.8,181,272,180.6z"/>
		<path fill="#FFFFFF" d="M279.7,180.6l0.6-2c0.7,0.2,1.5,0.5,2.5,0.5c0.9,0,1-0.3,1.1-0.7c0.1-0.4-0.2-0.6-1.2-1.2
			c-1.9-1-2-1.7-1.7-3.1c0.4-2,1-2.5,3.6-2.5c0.9,0,2,0.2,2.8,0.4l-0.5,2c-0.7-0.2-1.7-0.3-2.3-0.3c-0.8,0-0.9,0.1-1,0.6
			c-0.1,0.4,0,0.5,0.9,1c2.1,1.1,2.4,1.5,2.1,3c-0.5,2.1-1.1,2.9-3.9,2.9C281.7,181.2,280.5,181,279.7,180.6z"/>
		<path fill="#FFFFFF" d="M287.1,183.1l1.5-2.1h-1l0.7-3.2h2.7l-0.7,3.4l-2.2,2.6L287.1,183.1z"/>
		<path fill="#FFFFFF" d="M301.8,181l0-0.8c-0.7,0.6-1.7,1-3,1c-2,0-2.5-1.2-2-3.3l0.5-2.5c0.5-2.2,1.1-3.9,5-3.9
			c0.3,0,0.9,0,1.1,0.1l0.8-3.7l2.8-0.4l-2.8,13.5H301.8z M299.4,178.2c-0.1,0.5,0,0.7,0.5,0.7c1,0,1.7-0.5,2.2-1l0.9-4.1
			c-0.3-0.1-0.7-0.1-1-0.1c-1.4,0-1.7,0.7-1.9,1.6L299.4,178.2z"/>
		<path fill="#FFFFFF" d="M306.6,178.1c0-0.2,0-0.4,0.1-0.7l0.5-2.2c0.5-2.4,1.7-3.8,5-3.8c2.5,0,3.6,1.4,3.5,3.1
			c0,0.2,0,0.4-0.1,0.7l-0.5,2.2c-0.5,2.2-1.6,3.8-5,3.8C307.7,181.2,306.6,179.8,306.6,178.1z M312.9,174.8c0-0.7-0.4-1.1-1.3-1.1
			c-1,0-1.6,0.5-1.8,1.4l-0.5,2.3c0,0.1,0,0.3-0.1,0.4c0,0.7,0.4,1.1,1.3,1.1c1,0,1.6-0.5,1.8-1.4l0.5-2.3
			C312.9,175.1,312.9,174.9,312.9,174.8z"/>
		<path fill="#FFFFFF" d="M332.1,174.7c0-0.1,0-0.2,0-0.3c0-0.2-0.1-0.3-0.4-0.3c-0.5,0-1.7,0.5-2.5,0.9l-1.3,6h-2.7l1.3-6.3
			c0-0.1,0-0.2,0-0.3c0-0.2-0.1-0.3-0.4-0.3c-0.5,0-1.7,0.5-2.4,0.9l-1.3,6H320l1.9-9.1l2.4-0.4l-0.1,1c1.5-0.7,2.6-1.1,3.7-1.1
			c0.9,0,1.4,0.4,1.6,1.1c1.4-0.8,2.7-1.1,3.8-1.1c1.2,0,1.7,0.7,1.6,1.9c0,0.3,0,0.7-0.1,1.1l-1.4,6.5h-2.7L332.1,174.7z"/>
		<path fill="#FFFFFF" d="M335.9,178.1c0-0.2,0-0.4,0.1-0.7l0.5-2.2c0.5-2.4,1.7-3.8,5-3.8c2.5,0,3.6,1.4,3.5,3.1
			c0,0.2,0,0.4-0.1,0.7l-0.5,2.2c-0.5,2.2-1.6,3.8-5,3.8C337,181.2,335.8,179.8,335.9,178.1z M342.2,174.8c0-0.7-0.4-1.1-1.3-1.1
			c-1,0-1.6,0.5-1.8,1.4l-0.5,2.3c0,0.1,0,0.3-0.1,0.4c0,0.7,0.4,1.1,1.3,1.1c1,0,1.6-0.5,1.8-1.4l0.5-2.3
			C342.2,175.1,342.2,174.9,342.2,174.8z"/>
		<path fill="#FFFFFF" d="M352.1,174c-1.2,0.6-1.7,0.9-2.8,1.6l-1.2,5.5h-2.7l1.9-9.1l2.4-0.4l-0.1,1.3c0.9-0.5,1.7-0.9,2.5-1.3
			L352.1,174z"/>
		<path fill="#FFFFFF" d="M352.7,175c0.5-2.1,1.5-3.5,4.4-3.5c1.8,0,3.1,0.8,3,2.3c-0.1,1.8-1,2.7-3.3,3.3c-1.1,0.3-1.2,0.3-2,0.6
			l-0.1,0.6c-0.1,0.3,0,0.7,0.5,0.7c1,0,2.4-0.5,3.7-1l0.4,1.9c-1.2,0.7-3,1.3-4.6,1.3c-1.9,0-2.7-0.8-2.7-2.4
			c0-0.3,0.1-0.7,0.2-1.1L352.7,175z M357.6,174.1c0-0.3-0.3-0.5-0.8-0.5c-1,0-1.3,0.6-1.4,1.3l-0.1,0.7c0.5-0.1,0.7-0.2,1.2-0.3
			C357.2,175,357.6,174.7,357.6,174.1z"/>
		<path fill="#FFFFFF" d="M361.2,177.8h2.7l-0.7,3.2h-2.7L361.2,177.8z"/>
	</g>
</g>
<path fill="#7ACEF4" d="M114.1,126.6c-4.6,6.5-4,15.1-0.5,22c0.1,0.2,0.2,0.3,0.3,0.5c0,0.1,0.1,0.2,0.2,0.3c0,0.1,0.1,0.1,0.1,0.2
	c0.1,0.1,0.1,0.2,0.2,0.3c0.1,0.2,0.2,0.4,0.3,0.6c0.1,0.1,0.1,0.2,0.2,0.3c0.1,0.2,0.3,0.4,0.4,0.6c0.1,0.1,0.1,0.2,0.2,0.3
	c0.2,0.3,0.4,0.5,0.6,0.8c0,0,0,0,0,0c0,0,0.1,0.1,0.1,0.1c0.2,0.2,0.3,0.5,0.5,0.7c0.1,0.1,0.1,0.2,0.2,0.2
	c0.2,0.2,0.3,0.4,0.5,0.6c0.1,0.1,0.1,0.1,0.2,0.2c0.2,0.3,0.4,0.5,0.7,0.7c0,0,0,0,0,0c0,0,0,0,0,0c0.2,0.2,0.4,0.5,0.7,0.7
	c0.1,0.1,0.1,0.1,0.2,0.2c0.2,0.2,0.3,0.3,0.5,0.5c0.1,0.1,0.1,0.1,0.2,0.2c0.2,0.2,0.5,0.4,0.7,0.7c0,0,0,0,0,0
	c0,0,0.1,0.1,0.1,0.1c0.2,0.2,0.4,0.4,0.7,0.6c0.1,0.1,0.2,0.1,0.3,0.2c0.2,0.1,0.4,0.3,0.6,0.4c0.1,0.1,0.2,0.1,0.3,0.2
	c0.2,0.2,0.4,0.3,0.6,0.4c0.1,0.1,0.1,0.1,0.2,0.2c0,0,0,0,0.1,0c0.2,0.1,0.4,0.3,0.6,0.4c0.1,0.1,0.2,0.1,0.3,0.2
	c0.3,0.2,0.6,0.4,0.9,0.6c0.1,0,0.2,0.1,0.3,0.1c0.2,0.1,0.5,0.3,0.7,0.4c0.1,0.1,0.3,0.1,0.4,0.2c0.2,0.1,0.3,0.2,0.5,0.3
	c0,0,0.1,0,0.1,0.1c0.1,0,0.1,0.1,0.2,0.1c0.3,0.1,0.5,0.3,0.8,0.4c0.1,0,0.1,0,0.2,0.1c0.3,0.1,0.6,0.3,0.9,0.4
	c0.1,0,0.1,0.1,0.2,0.1c0.3,0.1,0.6,0.2,0.9,0.3c0,0,0.1,0,0.1,0c0.3,0.1,0.7,0.2,1,0.3c0.1,0,0.2,0.1,0.2,0.1
	c0.3,0.1,0.7,0.2,1,0.3c22,4,28.4-13.2,28.4-13.2c-5.4,7-14.9,8.8-24,6.8c-0.3-0.1-0.7-0.2-1-0.3c-0.1,0-0.2,0-0.2-0.1
	c-0.3-0.1-0.7-0.2-1-0.3c0,0-0.1,0-0.1-0.1c-0.3-0.1-0.6-0.2-0.9-0.3c-0.1,0-0.2-0.1-0.2-0.1c-0.3-0.1-0.6-0.3-0.9-0.4
	c-0.1,0-0.1-0.1-0.2-0.1c-0.3-0.1-0.5-0.2-0.8-0.4c-0.1,0-0.1-0.1-0.2-0.1c-0.2-0.1-0.4-0.2-0.6-0.3c-0.1-0.1-0.3-0.1-0.4-0.2
	c-0.2-0.1-0.5-0.3-0.7-0.4c-0.1-0.1-0.2-0.1-0.2-0.1c-0.3-0.2-0.6-0.4-0.9-0.6c-0.1-0.1-0.2-0.1-0.3-0.2c-0.2-0.1-0.5-0.3-0.7-0.4
	c-0.1-0.1-0.1-0.1-0.2-0.2c-0.2-0.1-0.4-0.3-0.6-0.5c-0.1-0.1-0.2-0.1-0.3-0.2c-0.2-0.1-0.4-0.3-0.6-0.4c-0.1-0.1-0.2-0.1-0.3-0.2
	c-0.2-0.2-0.5-0.4-0.7-0.6c0,0-0.1,0-0.1-0.1c-0.3-0.2-0.5-0.5-0.7-0.7c-0.1-0.1-0.1-0.1-0.2-0.2c-0.2-0.2-0.4-0.3-0.5-0.5
	c-0.1-0.1-0.1-0.1-0.2-0.2c-0.2-0.2-0.4-0.5-0.7-0.7c0,0,0,0,0,0c-0.2-0.3-0.4-0.5-0.7-0.8c-0.1-0.1-0.1-0.1-0.2-0.2
	c-0.2-0.2-0.3-0.4-0.5-0.6c-0.1-0.1-0.1-0.1-0.2-0.2c-0.2-0.2-0.4-0.5-0.6-0.7c-5-6.8-6.8-16.3-2.8-24"/>
<path fill="#7ACEF4" d="M128.2,121.1c-3.3,4.7-3.1,11.1-0.5,16.1c0.4,0.8,0.9,1.7,1.5,2.4c0.5,0.7,1,1.5,1.7,2.1
	c0.2,0.3,0.5,0.5,0.7,0.8c0.1,0.1,0.1,0.1,0.2,0.2c0.2,0.2,0.5,0.5,0.8,0.7c0,0,0,0,0,0c0,0,0,0,0,0c0.3,0.3,0.6,0.5,0.9,0.7
	c0.1,0.1,0.1,0.1,0.2,0.2c0.3,0.2,0.6,0.5,0.9,0.7c0,0,0,0,0,0c0.1,0.1,0.3,0.2,0.4,0.3c0.1,0,0.1,0.1,0.2,0.1
	c0.2,0.1,0.5,0.3,0.7,0.4c0,0,0.1,0,0.1,0.1c0.2,0.1,0.4,0.2,0.6,0.3c0.1,0,0.1,0.1,0.2,0.1c0.1,0.1,0.3,0.1,0.4,0.2c0,0,0,0,0.1,0
	c0.3,0.1,0.6,0.3,0.9,0.4c0.1,0,0.1,0.1,0.2,0.1c0.2,0.1,0.5,0.2,0.7,0.3c0.1,0,0.2,0.1,0.3,0.1c0.2,0.1,0.4,0.2,0.7,0.2
	c0.1,0,0.2,0.1,0.3,0.1c0.3,0.1,0.6,0.2,1,0.3c17,2.8,20.9-10.3,20.9-10.3c-3.5,5.1-10.4,7.5-17.7,5.6c-0.3-0.1-0.6-0.2-1-0.3
	c-0.1,0-0.2-0.1-0.3-0.1c-0.2-0.1-0.5-0.1-0.7-0.2c-0.1,0-0.2-0.1-0.3-0.1c-0.2-0.1-0.5-0.2-0.7-0.3c-0.1,0-0.1-0.1-0.2-0.1
	c-0.3-0.1-0.6-0.3-0.9-0.4c-0.1-0.1-0.3-0.2-0.4-0.2c-0.1,0-0.2-0.1-0.3-0.1c-0.2-0.1-0.4-0.2-0.6-0.3c0,0-0.1,0-0.1-0.1
	c-0.2-0.1-0.5-0.3-0.7-0.4c-0.1,0-0.1-0.1-0.2-0.1c-0.1-0.1-0.3-0.2-0.4-0.3c-0.3-0.2-0.6-0.4-0.9-0.7c-0.1-0.1-0.1-0.1-0.2-0.2
	c-3.2-2.5-5.7-6-6.9-9.9c-1.3-4.1-1-8.6,1.2-12.3"/>
<path fill="#7ACEF4" d="M140.1,116.9c-1.9,2.9-2.1,6.4-0.8,9.6c1.4,3.4,4.3,6,7.7,7.2c0.1,0.1,0.3,0.1,0.4,0.1c0.1,0,0.1,0,0.2,0.1
	c0.2,0.1,0.4,0.1,0.6,0.2c9.4,1.8,11.9-4.8,12.6-5.8c-2.2,3.2-6,4-10.6,2.9c-0.4-0.1-0.8-0.2-1.1-0.3c-0.4-0.2-0.9-0.3-1.3-0.5
	c-0.8-0.4-1.6-0.9-2.3-1.4c-4.1-3.1-6.7-9.1-4-13.9"/>
<path fill="#FFFFFF" d="M357.8,130.3l0.4,1.6c0.1,0.4-0.2,0.8-0.6,0.8"/>
<path fill="#FFFFFF" d="M328.2,127.7c-0.1,0.4-0.2,1-0.3,1.3l-3.3,15.2l3.4-16L328.2,127.7z"/>
<polygon fill="#FFFFFF" points="230.8,137.8 229,144.2 230.8,137.8 "/>
<path fill="#FFFFFF" d="M358.2,131.9l-0.9-4c-0.7-2.9-2.8-4.2-7.5-4.2h-19.8c-0.5,0-0.9,0.2-1,0.7l-7.5,35.6c-0.1,0.5-0.1,0.8-0.1,1
	c0.1,0.2,0.9,0.2,1.4,0.2h6.9c0.5,0,1.3,0,1.5-0.1c0.3-0.1,0.4-0.8,0.5-1.2l2.4-12.5l3-13.9c0.1-0.4,0.5-0.8,1-0.8l19.6,0
	C358,132.7,358.3,132.3,358.2,131.9"/>
<path fill="#FFFFFF" d="M386.1,117.4c-0.5,0-8.7,0-8.7,0c-0.5,0-1,0.5-1.3,0.9l-15.3,22.5c-0.3,0.4-0.6,0.4-0.7-0.1l-1.1-4.9
	c-0.1-0.4-0.6-0.8-1-0.8h-9.8c-0.5,0-0.7,0.4-0.6,0.8l4.4,15.4c0.1,0.4,0.1,1.2,0,1.6l-2.1,7.8c-0.1,0.4,0.2,0.6,0.6,0.6h9.7
	c0.5,0,0.9-0.1,1-0.6l2.1-7.9c0.1-0.4,0.4-1,0.7-1.4l24.9-33c0.3-0.4,0.2-0.8-0.2-0.8L386.1,117.4z"/>
<path fill="#FFFFFF" d="M283.9,123.7h-8.9c-0.5,0-0.9,0.2-1,0.6l-2.9,13.7l-2.9,13.1c-0.1,0.4-0.5,0.4-1,0.4h-5.8
	c-5.8,0-5.1-3.6-3.9-9.1c0-0.1,3.7-18.1,3.7-18.1c0.1-0.4-0.2-0.6-0.7-0.6h-8.4c-0.5,0-0.9,0.2-1,0.6l-3.4,18.1
	c-1.7,9.8-1.7,18.4,9.6,18.7c0.2,0,17.9,0,17.9,0c0.5,0,0.9-0.2,1-0.6l3.9-18.2l3.8-18.2C284,124.1,284.1,123.7,283.9,123.7z"/>
<path fill="#FFFFFF" d="M195.8,123.7h-9.5c-0.5,0-0.9,0.1-1,0.6l-1.7,7.4c-0.1,0.4,0.2,0.8,0.7,0.8h9.1c0.5,0,0.9-0.4,1-0.9l1.6-7.5
	C195.9,124.1,196.1,123.7,195.8,123.7z"/>
<path fill="#FFFFFF" d="M183.6,135c-0.5,0-0.9,0.4-1,0.8l-1.3,5.7l-2.9,13.1c0,0-1.5,6.9-1.7,7.4c0,0-1.3,5-4.3,4.8
	c-1.4-0.1-3-0.4-3-0.4h0c-0.9-0.3-0.9,0.6-1,1.1l-1.9,8.1c-0.1,0.4,0.2,0.8,0.6,0.9c0,0,4.1,0.6,7,0.6h0.5c7.1,0,10.9-4.2,13.3-15.6
	l2.8-13.2l2.6-12.3c0.1-0.4-0.2-0.9-0.6-0.9"/>
<path fill="#FFFFFF" d="M306.3,123.6c-16,0-19.8,9.9-21.9,19.6c-2.1,10-1.9,17.9,14.6,17.9h0.6c6.6,0,14.5,0,14.5,0
	c0.4,0,0.9-0.4,1-0.9l1.6-6.3c0.1-0.4-0.2-0.6-0.7-0.6h-14.9c-5.4,0-7.3-1.7-7.1-5.4c0-0.4,0.5-1.5,0.9-1.5h22.9c1,0,1-0.6,1-0.6
	C321.3,135.4,321.5,123.6,306.3,123.6 M310.6,139.3c0,0.5-1.6,0.4-1.6,0.4l-12.4-0.1c-0.4,0-0.6-0.6-0.6-1c0,0,0-0.5,0.1-0.6
	c1-3.3,3.8-5.2,8.4-5.2c5.1,0,6.2,2.5,6.2,5.4"/>
<path fill="#FFFFFF" d="M237.3,150.9c0,0,4.5-10.9,5.5-17.1c1.4-8.4-2.8-20.6-19.1-20.6c-16.2,0-23.2,11.6-25.8,24.3
	c-2.7,12.7,0.8,23.8,16.9,23.7l24.5,0c0.5,0,0.9-0.4,1-0.8l2.1-7.9c0.1-0.4-0.2-0.8-0.6-0.8l-2,0l-2,0c-0.4,0-0.6-0.3-0.6-0.6
	C237.3,151,237.3,150.9,237.3,150.9 M228.9,144.2l-1.8,6.3c-0.1,0.4-0.6,0.7-1.1,0.7h-9.5c-7.2,0-9-5.6-7.2-13.9
	c1.8-8.5,5.2-13.7,12.3-14.3c9.7-0.7,11.7,6.1,9.3,14L228.9,144.2z"/>
</svg>
