<?xml version="1.0" encoding="utf-8"?>
<!-- Generator: Adobe Illustrator 18.1.1, SVG Export Plug-In . SVG Version: 6.00 Build 0)  -->
<svg version="1.1" id="Layer_1" xmlns="http://www.w3.org/2000/svg" xmlns:xlink="http://www.w3.org/1999/xlink" x="0px" y="0px"
	 viewBox="0 0 67 67" enable-background="new 0 0 67 67" xml:space="preserve">
<g>
	<path fill="#0769AD" d="M4.8,16.7C-1.1,25-0.4,36,4.1,44.8c0.1,0.3,0.3,0.4,0.4,0.6c0,0.1,0.1,0.3,0.3,0.4c0,0.1,0.1,0.1,0.1,0.3
		C5,46.2,5,46.4,5.1,46.5c0.1,0.3,0.3,0.5,0.4,0.8c0.1,0.1,0.1,0.3,0.3,0.4c0.1,0.3,0.4,0.5,0.5,0.8c0.1,0.1,0.1,0.3,0.3,0.4
		c0.3,0.4,0.5,0.6,0.8,1l0,0l0.1,0.1c0.3,0.3,0.4,0.6,0.6,0.9c0.1,0.1,0.1,0.3,0.3,0.3c0.3,0.3,0.4,0.5,0.6,0.8
		C9.1,52,9.1,52,9.2,52.1c0.3,0.4,0.5,0.6,0.9,0.9l0,0l0,0c0.3,0.3,0.5,0.6,0.9,0.9c0.1,0.1,0.1,0.1,0.3,0.3
		c0.3,0.3,0.4,0.4,0.6,0.6c0.1,0.1,0.1,0.1,0.3,0.3c0.3,0.3,0.6,0.5,0.9,0.9l0,0l0.1,0.1c0.3,0.3,0.5,0.5,0.9,0.8
		c0.1,0.1,0.3,0.1,0.4,0.3c0.3,0.1,0.5,0.4,0.8,0.5c0.1,0.1,0.3,0.1,0.4,0.3c0.3,0.3,0.5,0.4,0.8,0.5c0.1,0.1,0.1,0.1,0.3,0.3
		c0,0,0,0,0.1,0c0.3,0.1,0.5,0.4,0.8,0.5c0.1,0.1,0.3,0.1,0.4,0.3c0.4,0.3,0.8,0.5,1.2,0.8c0.1,0,0.3,0.1,0.4,0.1
		c0.3,0.1,0.6,0.4,0.9,0.5c0.1,0.1,0.4,0.1,0.5,0.3c0.3,0.1,0.4,0.3,0.6,0.4c0,0,0.1,0,0.1,0.1c0.1,0,0.1,0.1,0.3,0.1
		c0.4,0.1,0.6,0.4,1,0.5c0.1,0,0.1,0,0.3,0.1c0.4,0.1,0.8,0.4,1.2,0.5c0.1,0,0.1,0.1,0.3,0.1c0.4,0.1,0.8,0.3,1.2,0.4h0.1
		c0.4,0.1,0.9,0.3,1.3,0.4c0.1,0,0.3,0.1,0.3,0.1c0.4,0.1,0.9,0.3,1.3,0.4C56.9,69.4,65,47.4,65,47.4c-6.9,9-19.1,11.3-30.7,8.7
		c-0.4-0.1-0.9-0.3-1.3-0.4c-0.1,0-0.3,0-0.3-0.1c-0.4-0.1-0.9-0.3-1.3-0.4c0,0-0.1,0-0.1-0.1c-0.4-0.1-0.8-0.3-1.2-0.4
		c-0.1,0-0.3-0.1-0.3-0.1c-0.4-0.1-0.8-0.4-1.2-0.5c-0.1,0-0.1-0.1-0.3-0.1c-0.4-0.1-0.6-0.3-1-0.5c-0.1,0-0.1-0.1-0.3-0.1
		c-0.3-0.1-0.5-0.3-0.8-0.4c-0.1-0.1-0.4-0.1-0.5-0.3c-0.3-0.1-0.6-0.4-0.9-0.5C25,52,24.9,52,24.9,52c-0.4-0.3-0.8-0.5-1.2-0.8
		c-0.1-0.1-0.3-0.1-0.4-0.3c-0.3-0.1-0.6-0.4-0.9-0.5c-0.1-0.1-0.1-0.1-0.3-0.3c-0.3-0.1-0.5-0.4-0.8-0.6c-0.1-0.1-0.3-0.1-0.4-0.3
		c-0.3-0.1-0.5-0.4-0.8-0.5c-0.1-0.1-0.3-0.1-0.4-0.3c-0.3-0.3-0.6-0.5-0.9-0.8c0,0-0.1,0-0.1-0.1c-0.4-0.3-0.6-0.6-0.9-0.9
		c-0.1-0.1-0.1-0.1-0.3-0.3c-0.3-0.3-0.5-0.4-0.6-0.6c-0.1-0.1-0.1-0.1-0.3-0.3c-0.3-0.3-0.5-0.6-0.9-0.9l0,0
		c-0.3-0.4-0.5-0.6-0.9-1c-0.1-0.1-0.1-0.1-0.3-0.3c-0.3-0.3-0.4-0.5-0.6-0.8c-0.1-0.1-0.1-0.1-0.3-0.3c-0.3-0.3-0.5-0.6-0.8-0.9
		c-6.4-8.7-8.7-20.9-3.6-30.7"/>
	<path fill="#0769AD" d="M22.8,9.6c-4.2,6-4,14.2-0.6,20.6c0.5,1,1.2,2.2,1.9,3.1c0.6,0.9,1.3,1.9,2.2,2.7c0.3,0.4,0.6,0.6,0.9,1
		c0.1,0.1,0.1,0.1,0.3,0.3c0.3,0.3,0.6,0.6,1,0.9l0,0l0,0c0.4,0.4,0.8,0.6,1.2,0.9c0.1,0.1,0.1,0.1,0.3,0.3c0.4,0.3,0.8,0.6,1.2,0.9
		l0,0c0.1,0.1,0.4,0.3,0.5,0.4c0.1,0,0.1,0.1,0.3,0.1c0.3,0.1,0.6,0.4,0.9,0.5c0,0,0.1,0,0.1,0.1c0.3,0.1,0.5,0.3,0.8,0.4
		c0.1,0,0.1,0.1,0.3,0.1c0.1,0.1,0.4,0.1,0.5,0.3c0,0,0,0,0.1,0c0.4,0.1,0.8,0.4,1.2,0.5c0.1,0,0.1,0.1,0.3,0.1
		c0.3,0.1,0.6,0.3,0.9,0.4c0.1,0,0.3,0.1,0.4,0.1c0.3,0.1,0.5,0.3,0.9,0.3c0.1,0,0.3,0.1,0.4,0.1c0.4,0.1,0.8,0.3,1.3,0.4
		c21.8,3.6,26.8-13.2,26.8-13.2C62,37.4,53.1,40.5,43.8,38c-0.4-0.1-0.8-0.3-1.3-0.4c-0.1,0-0.3-0.1-0.4-0.1
		c-0.3-0.1-0.6-0.1-0.9-0.3c-0.1,0-0.3-0.1-0.4-0.1c-0.3-0.1-0.6-0.3-0.9-0.4c-0.1,0-0.1-0.1-0.3-0.1c-0.4-0.1-0.8-0.4-1.2-0.5
		c-0.1-0.1-0.4-0.3-0.5-0.3c-0.1,0-0.3-0.1-0.4-0.1c-0.3-0.1-0.5-0.3-0.8-0.4c0,0-0.1,0-0.1-0.1c-0.3-0.1-0.6-0.4-0.9-0.5
		c-0.1,0-0.1-0.1-0.3-0.1c-0.1-0.1-0.4-0.3-0.5-0.4c-0.4-0.3-0.8-0.5-1.2-0.9c-0.1-0.1-0.1-0.1-0.3-0.3c-4.1-3.2-7.3-7.7-8.8-12.7
		c-1.7-5.2-1.3-11,1.5-15.7"/>
	<path fill="#0769AD" d="M38,4.2c-2.4,3.7-2.7,8.2-1,12.3c1.8,4.4,5.5,7.7,9.9,9.2c0.1,0.1,0.4,0.1,0.5,0.1c0.1,0,0.1,0,0.3,0.1
		c0.3,0.1,0.5,0.1,0.8,0.3c12,2.3,15.2-6.1,16.1-7.4c-2.8,4.1-7.7,5.1-13.6,3.7c-0.5-0.1-1-0.3-1.4-0.4c-0.5-0.3-1.2-0.4-1.7-0.6
		c-1-0.5-2-1.2-2.9-1.8c-5.2-4-8.6-11.6-5.1-17.8"/>
</g>
</svg>
