<?xml version="1.0" encoding="utf-8"?>
<!-- Generator: Adobe Illustrator 18.1.1, SVG Export Plug-In . SVG Version: 6.00 Build 0)  -->
<svg version="1.1" id="Layer_1" xmlns="http://www.w3.org/2000/svg" xmlns:xlink="http://www.w3.org/1999/xlink" x="0px" y="0px"
	 viewBox="0 0 105 105" enable-background="new 0 0 105 105" xml:space="preserve">
<title  id="title3510">Official PHP Logo</title>
<g id="g3438" transform="matrix(1.25,0,0,-1.25,-4.4,394.29875)">
	<g id="g3440">
		<g>
			<defs>
				<path id="SVGID_1_" d="M4,273.4c0-12,18.6-21.8,41.5-21.8l0,0c22.9,0,41.5,9.8,41.5,21.8l0,0c0,12-18.6,21.8-41.5,21.8l0,0
					C22.6,295.3,4,285.5,4,273.4"/>
			</defs>
			<clipPath id="SVGID_2_">
				<use xlink:href="#SVGID_1_"  overflow="visible"/>
			</clipPath>
			<g id="g3442" clip-path="url(#SVGID_2_)">
				<g id="g3448">
					<g id="g3450">
						
							<radialGradient id="path3462_1_" cx="3.1926" cy="231.3701" r="0.15" gradientTransform="matrix(453.8224 0 0 -453.8224 -1419.9347 105288.5)" gradientUnits="userSpaceOnUse">
							<stop  offset="0" style="stop-color:#AEB2D5"/>
							<stop  offset="0.3" style="stop-color:#AEB2D5"/>
							<stop  offset="0.75" style="stop-color:#484C89"/>
							<stop  offset="1" style="stop-color:#484C89"/>
						</radialGradient>
						<path id="path3462" fill="url(#path3462_1_)" d="M4,273.4c0-12,18.6-21.8,41.5-21.8l0,0c22.9,0,41.5,9.8,41.5,21.8l0,0
							c0,12-18.6,21.8-41.5,21.8l0,0C22.6,295.3,4,285.5,4,273.4"/>
					</g>
				</g>
			</g>
		</g>
	</g>
	<g id="g3464">
		<g>
			<defs>
				<rect id="SVGID_3_" x="-8.5" y="243.1" width="108" height="60.8"/>
			</defs>
			<clipPath id="SVGID_4_">
				<use xlink:href="#SVGID_3_"  overflow="visible"/>
			</clipPath>
			<g id="g3466" clip-path="url(#SVGID_4_)">
				<g id="g3472" transform="translate(288,27.3594)">
					<path id="path3474" fill="#777BB3" d="M-242.5,225.9c22,0,39.9,9,39.9,20.2c0,11.2-17.8,20.2-39.9,20.2s-39.9-9-39.9-20.2
						C-282.3,234.9-264.5,225.9-242.5,225.9"/>
				</g>
			</g>
		</g>
	</g>
	<g id="g3476">
		<g>
			<defs>
				<rect id="SVGID_5_" x="-8.5" y="243.1" width="108" height="60.8"/>
			</defs>
			<clipPath id="SVGID_6_">
				<use xlink:href="#SVGID_5_"  overflow="visible"/>
			</clipPath>
			<g id="g3478" clip-path="url(#SVGID_6_)">
				<g id="g3484" transform="translate(161.7344,145.3066)">
					<path id="path3486" d="M-135.2,125.6c1.8,0,3.2,0.3,4,1c0.8,0.7,1.4,1.8,1.7,3.4c0.3,1.5,0.2,2.5-0.3,3.1
						c-0.5,0.6-1.6,0.9-3.3,0.9h-2.9l-1.6-8.3H-135.2z M-144.6,115.5c-0.1,0-0.3,0.1-0.3,0.2c-0.1,0.1-0.1,0.2-0.1,0.4l4.2,21.9
						c0,0.2,0.2,0.4,0.4,0.4h9.2c2.9,0,5-0.8,6.4-2.3c1.4-1.5,1.8-3.7,1.2-6.4c-0.2-1.1-0.6-2.1-1.1-3.1c-0.5-0.9-1.2-1.8-2-2.5
						c-1-0.9-2.1-1.6-3.3-2c-1.2-0.4-2.7-0.6-4.6-0.6h-3.7l-1.1-5.4c0-0.2-0.2-0.4-0.4-0.4H-144.6z"/>
				</g>
				<g id="g3488" transform="translate(159.2236,197.3071)">
					<path id="path3490" fill="#FFFFFF" d="M-133,81.4h2.5c2,0,2.7-0.4,3-0.7c0.4-0.4,0.5-1.4,0.2-2.7c-0.3-1.5-0.8-2.5-1.6-3.1
						c-0.8-0.6-2-0.9-3.7-0.9h-1.8L-133,81.4z M-128.7,86.7h-9.2c-0.4,0-0.8-0.3-0.9-0.7l-4.2-21.9c-0.1-0.3,0-0.5,0.2-0.7
						c0.2-0.2,0.4-0.3,0.7-0.3h4.8c0.4,0,0.8,0.3,0.9,0.7l1,5.1h3.3c1.9,0,3.5,0.2,4.7,0.6c1.3,0.4,2.5,1.1,3.5,2.1
						c0.9,0.8,1.6,1.7,2.1,2.6c0.5,1,0.9,2,1.2,3.2c0.6,2.9,0.1,5.2-1.3,6.8C-123.4,85.8-125.7,86.7-128.7,86.7 M-135.5,73.2h2.9
						c1.9,0,3.4,0.4,4.3,1.1c0.9,0.7,1.6,1.9,1.9,3.6c0.3,1.6,0.2,2.8-0.4,3.4c-0.6,0.7-1.8,1-3.6,1h-3.3L-135.5,73.2 M-128.7,85.8
						c2.8,0,4.8-0.7,6-2.2c1.3-1.4,1.6-3.5,1.1-6.1c-0.2-1.1-0.6-2-1.1-2.9c-0.5-0.9-1.1-1.7-1.9-2.4c-1-0.9-2-1.5-3.2-1.9
						c-1.2-0.4-2.6-0.6-4.4-0.6h-4.1l-1.1-5.8h-4.8l4.2,21.9H-128.7"/>
				</g>
				<g id="g3492" transform="translate(311.583,116.3066)">
					<path id="path3494" d="M-262.5,150.3c-0.1,0-0.3,0.1-0.3,0.2c-0.1,0.1-0.1,0.2-0.1,0.4l1.9,9.7c0.2,0.9,0.1,1.6-0.1,1.9
						c-0.2,0.2-0.6,0.5-2,0.5h-3.4l-2.4-12.2c0-0.2-0.2-0.4-0.4-0.4h-4.7c-0.1,0-0.3,0.1-0.3,0.2c-0.1,0.1-0.1,0.2-0.1,0.4l4.2,21.9
						c0,0.2,0.2,0.4,0.4,0.4h4.7c0.1,0,0.3-0.1,0.3-0.2c0.1-0.1,0.1-0.2,0.1-0.4l-1-5.3h3.7c2.8,0,4.7-0.5,5.8-1.5
						c1.1-1,1.5-2.7,1-4.9l-2-10.2c0-0.2-0.2-0.4-0.4-0.4H-262.5z"/>
				</g>
				<g id="g3496" transform="translate(293.6611,271.0571)">
					<path id="path3498" fill="#FFFFFF" d="M-247.3,18.7h-4.7c-0.4,0-0.8-0.3-0.9-0.7l-4.2-21.9c-0.1-0.3,0-0.5,0.2-0.7
						c0.2-0.2,0.4-0.3,0.7-0.3h4.7c0.4,0,0.8,0.3,0.9,0.7l2.3,11.8h3c1.4,0,1.7-0.3,1.7-0.3c0.1-0.1,0.2-0.5,0-1.5l-1.9-9.7
						c-0.1-0.3,0-0.5,0.2-0.7c0.2-0.2,0.4-0.3,0.7-0.3h4.8c0.4,0,0.8,0.3,0.9,0.7l2,10.2c0.5,2.4,0.1,4.2-1.2,5.3
						c-1.2,1.1-3.2,1.6-6.1,1.6h-3.1l0.9,4.7c0.1,0.3,0,0.5-0.2,0.7C-246.8,18.6-247,18.7-247.3,18.7 M-247.3,17.8l-1.1-5.8h4.2
						c2.6,0,4.5-0.5,5.5-1.4c1-0.9,1.3-2.4,0.9-4.5l-2-10.2h-4.8l1.9,9.7c0.2,1.1,0.1,1.9-0.2,2.3c-0.4,0.4-1.2,0.6-2.4,0.6h-3.8
						L-251.5-4h-4.7l4.2,21.9H-247.3"/>
				</g>
				<g id="g3500" transform="translate(409.5498,145.3066)">
					<path id="path3502" d="M-345.8,125.6c1.8,0,3.2,0.3,4,1c0.8,0.7,1.4,1.8,1.7,3.4c0.3,1.5,0.2,2.5-0.3,3.1
						c-0.5,0.6-1.6,0.9-3.3,0.9h-2.9l-1.6-8.3H-345.8z M-355.3,115.5c-0.1,0-0.3,0.1-0.3,0.2c-0.1,0.1-0.1,0.2-0.1,0.4l4.2,21.9
						c0,0.2,0.2,0.4,0.4,0.4h9.2c2.9,0,5-0.8,6.4-2.3c1.4-1.5,1.8-3.7,1.2-6.4c-0.2-1.1-0.6-2.1-1.1-3.1c-0.5-0.9-1.2-1.8-2-2.5
						c-1-0.9-2.1-1.6-3.3-2c-1.2-0.4-2.7-0.6-4.6-0.6h-3.7l-1.1-5.4c0-0.2-0.2-0.4-0.4-0.4H-355.3z"/>
				</g>
				<g id="g3504" transform="translate(407.0391,197.3071)">
					<path id="path3506" fill="#FFFFFF" d="M-343.7,81.4h2.5c2,0,2.7-0.4,3-0.7c0.4-0.4,0.5-1.4,0.2-2.7c-0.3-1.5-0.8-2.5-1.6-3.1
						c-0.8-0.6-2-0.9-3.7-0.9h-1.8L-343.7,81.4z M-339.3,86.7h-9.2c-0.4,0-0.8-0.3-0.9-0.7l-4.2-21.9c-0.1-0.3,0-0.5,0.2-0.7
						c0.2-0.2,0.4-0.3,0.7-0.3h4.8c0.4,0,0.8,0.3,0.9,0.7l1,5.1h3.3c1.9,0,3.5,0.2,4.7,0.6c1.3,0.4,2.5,1.1,3.5,2.1
						c0.9,0.8,1.6,1.7,2.1,2.6c0.5,1,0.9,2,1.2,3.2c0.6,2.9,0.1,5.2-1.3,6.8C-334.1,85.8-336.3,86.7-339.3,86.7 M-346.2,73.2h2.9
						c1.9,0,3.4,0.4,4.3,1.1c0.9,0.7,1.6,1.9,1.9,3.6c0.3,1.6,0.2,2.8-0.4,3.4c-0.6,0.7-1.8,1-3.6,1h-3.3L-346.2,73.2 M-339.3,85.8
						c2.8,0,4.8-0.7,6-2.2c1.3-1.4,1.6-3.5,1.1-6.1c-0.2-1.1-0.6-2-1.1-2.9c-0.5-0.9-1.1-1.7-1.9-2.4c-1-0.9-2-1.5-3.2-1.9
						c-1.2-0.4-2.6-0.6-4.4-0.6h-4.1l-1.1-5.8h-4.8l4.2,21.9H-339.3"/>
				</g>
			</g>
		</g>
	</g>
</g>
</svg>
