<?xml version="1.0" encoding="utf-8"?>
<!-- Generator: Adobe Illustrator 18.1.1, SVG Export Plug-In . SVG Version: 6.00 Build 0)  -->
<svg version="1.1" id="Layer_1" xmlns="http://www.w3.org/2000/svg" xmlns:xlink="http://www.w3.org/1999/xlink" x="0px" y="0px"
	 viewBox="0 0 105 105" enable-background="new 0 0 105 105" xml:space="preserve">
<path fill="#CF649A" d="M90.4,58.3c-3.7,0-6.9,0.9-9.5,2.2c-1-1.9-2-3.6-2.1-4.9c-0.2-1.5-0.4-2.4-0.2-4.1c0.2-1.8,1.3-4.3,1.3-4.5
	c0-0.2-0.2-1.1-2.3-1.1s-3.9,0.4-4.1,1c-0.2,0.6-0.6,1.8-0.9,3.1c-0.4,1.9-4.2,8.8-6.4,12.3c-0.7-1.4-1.3-2.6-1.5-3.6
	c-0.2-1.5-0.4-2.4-0.2-4.1c0.2-1.8,1.3-4.3,1.3-4.5c0-0.2-0.2-1.1-2.3-1.1s-3.9,0.4-4.1,1c-0.2,0.6-0.4,1.9-0.9,3.1
	c-0.4,1.3-5.6,12.7-6.9,15.6c-0.7,1.5-1.3,2.7-1.7,3.5c-0.4,0.8,0,0.1-0.1,0.1c-0.4,0.7-0.6,1.1-0.6,1.1v0c-0.3,0.5-0.6,1-0.7,1
	c-0.1,0-0.3-1.4,0-3.3c0.8-4,2.6-10.1,2.6-10.4c0-0.1,0.3-1.2-1.2-1.7c-1.5-0.6-2,0.4-2.2,0.4c-0.1,0-0.2,0.3-0.2,0.3s1.7-7-3.2-7
	c-3,0-7.2,3.3-9.3,6.3c-1.3,0.7-4.1,2.2-7.1,3.9c-1.1,0.6-2.3,1.3-3.4,1.9l-0.2-0.2C18.3,58.5,7.5,54.1,7.9,45.7
	c0.2-3.1,1.2-11.1,20.8-20.9c16.1-8,28.9-5.8,31.2-0.9c3.2,7-6.9,19.9-23.6,21.8c-6.4,0.7-9.7-1.7-10.5-2.7c-0.9-1-1-1-1.3-0.8
	c-0.5,0.3-0.2,1.1,0,1.7c0.5,1.3,2.5,3.6,6,4.7c3.1,1,10.5,1.6,19.5-1.9c10.1-3.9,18-14.8,15.7-23.9c-2.4-9.2-17.7-12.3-32.2-7.1
	c-8.6,3.1-18,7.9-24.7,14.2c-8,7.5-9.3,14-8.7,16.7c1.9,9.7,15.2,16,20.5,20.6c-0.3,0.1-0.5,0.3-0.7,0.4
	c-2.7,1.3-12.8,6.6-15.4,12.2C1.6,86.1,5,90.7,7.2,91.3c6.9,1.9,13.9-1.5,17.7-7.2c3.8-5.6,3.3-13,1.6-16.3l-0.1-0.1l2.1-1.2
	c1.4-0.8,2.7-1.5,3.9-2.2c-0.7,1.8-1.1,3.9-1.4,7c-0.3,3.6,1.2,8.3,3.1,10.1c0.9,0.8,1.9,0.8,2.5,0.8c2.3,0,3.3-1.9,4.4-4.1
	c1.4-2.7,2.6-5.9,2.6-5.9s-1.5,8.6,2.7,8.6c1.5,0,3.1-2,3.8-3v0c0,0,0-0.1,0.1-0.2c0.1-0.1,0.2-0.3,0.2-0.4v0c0.6-1.1,2-3.5,4-7.5
	c2.6-5.2,5.2-11.7,5.2-11.7s0.2,1.6,1,4.2c0.4,1.6,1.4,3.3,2.2,4.9c-0.6,0.9-1,1.4-1,1.4l0,0c-0.5,0.7-1,1.4-1.6,2
	c-2.1,2.5-4.6,5.4-4.9,6.2c-0.4,1-0.3,1.7,0.4,2.3c0.6,0.4,1.5,0.5,2.6,0.4c1.9-0.1,3.2-0.6,3.9-0.9c1-0.4,2.2-0.9,3.3-1.7
	c2-1.5,3.3-3.7,3.2-6.5c-0.1-1.6-0.6-3.1-1.2-4.6c0.2-0.3,0.4-0.5,0.6-0.8c3.2-4.7,5.7-9.9,5.7-9.9s0.2,1.6,1,4.2
	c0.4,1.3,1.2,2.8,1.9,4.2c-3,2.5-4.9,5.4-5.6,7.2c-1.2,3.5-0.3,5.1,1.5,5.4c0.8,0.2,1.9-0.2,2.8-0.6c1.1-0.3,2.4-0.9,3.5-1.8
	c2-1.5,4-3.6,3.9-6.5c-0.1-1.3-0.4-2.6-0.9-3.8c2.6-1.1,5.9-1.7,10.2-1.2c9.1,1.1,10.9,6.8,10.6,9.1c-0.3,2.4-2.3,3.7-2.9,4.1
	c-0.6,0.4-0.8,0.5-0.8,0.8c0.1,0.4,0.4,0.4,0.9,0.3c0.8-0.1,4.8-1.9,5-6.3C105.2,64.4,99.9,58.3,90.4,58.3L90.4,58.3z M20,82.1
	c-3,3.3-7.3,4.6-9.1,3.5c-1.9-1.1-1.2-6,2.5-9.5c2.3-2.1,5.2-4.1,7.1-5.3c0.4-0.3,1.1-0.7,1.9-1.1c0.1-0.1,0.2-0.1,0.2-0.1
	c0.1-0.1,0.3-0.2,0.5-0.3C24.5,74.2,23.2,78.6,20,82.1L20,82.1z M42,67.1c-1,2.6-3.3,9.1-4.6,8.8c-1.1-0.3-1.8-5.3-0.2-10.2
	c0.8-2.5,2.6-5.4,3.6-6.6c1.7-1.8,3.5-2.5,3.9-1.7C45.3,58.3,42.7,65.5,42,67.1z M60.2,75.8c-0.4,0.2-0.9,0.4-1,0.3
	c-0.1-0.1,0.2-0.4,0.2-0.4s2.3-2.4,3.2-3.6c0.5-0.7,1.1-1.4,1.8-2.3v0.2C64.3,73,61.5,75,60.2,75.8L60.2,75.8z M74.3,72.6
	c-0.3-0.2-0.3-1,0.8-3.4c0.4-0.9,1.4-2.5,3.1-4c0.2,0.6,0.3,1.2,0.3,1.8C78.5,70.6,75.9,72,74.3,72.6z"/>
</svg>
