<?xml version="1.0" encoding="utf-8"?>
<!-- Generator: Adobe Illustrator 18.1.1, SVG Export Plug-In . SVG Version: 6.00 Build 0)  -->
<svg version="1.1" id="Capa_1" xmlns="http://www.w3.org/2000/svg" xmlns:xlink="http://www.w3.org/1999/xlink" x="0px" y="0px"
	 viewBox="-686 345 512 512" enable-background="new -686 345 512 512" xml:space="preserve">
<g>
	<g>
		<g>
			<path fill="#FFFFFF" d="M-430,857c-141.2,0-256-114.8-256-256c0-141.2,114.8-256,256-256c141.2,0,256,114.8,256,256
				C-174,742.2-288.8,857-430,857z M-430,361.5c-132.1,0-239.5,107.4-239.5,239.5S-562.1,840.5-430,840.5
				c132.1,0,239.5-107.4,239.5-239.5S-297.9,361.5-430,361.5z"/>
		</g>
	</g>
	<g>
		<polygon fill="#FFFFFF" points="-477.3,710.2 -568.8,618.7 -557.2,607 -477.3,686.8 -303.5,513.1 -291.9,524.7 		"/>
	</g>
</g>
</svg>
