<?xml version="1.0" encoding="utf-8"?>
<!-- Generator: Adobe Illustrator 18.1.1, SVG Export Plug-In . SVG Version: 6.00 Build 0)  -->
<svg version="1.1" id="Layer_1" xmlns="http://www.w3.org/2000/svg" xmlns:xlink="http://www.w3.org/1999/xlink" x="0px" y="0px"
	 viewBox="0 0 105 105" enable-background="new 0 0 105 105" xml:space="preserve">
<g>
	<path fill="#9B5C8F" d="M10.6,21.9h83.7c5.3,0,9.6,4.4,9.6,9.6v31.8c0,5.3-4.4,9.6-9.6,9.6H64.3l4.1,10.2L50.3,72.9H10.6
		c-5.3,0-9.6-4.4-9.6-9.6V31.5C1,26.2,5.4,21.9,10.6,21.9z"/>
	<path fill="#FFFFFF" d="M6.3,30.6c0.6-0.9,1.5-1.2,2.6-1.2c2-0.3,3.5,0.9,3.8,2.9c1.2,8.8,2.6,16.3,4.4,22.2L26.4,37
		c0.9-1.5,1.8-2.3,3.2-2.6c1.8,0,2.9,1.2,3.5,3.5c1.2,5.5,2.3,10.2,4.1,14.3c1.2-10.8,2.9-18.4,5.5-23.1c0.6-1.2,1.5-1.8,2.9-1.8
		c0.9,0,1.8,0.3,2.6,0.9c0.9,0.6,1.2,1.5,1.2,2.3c0,0.9,0,1.5-0.3,2c-1.8,2.9-2.9,8.2-4.1,15.2c-1.2,6.7-1.5,12.3-1.2,16
		c0,1.2,0,2-0.6,2.9s-1.2,1.5-2.3,1.5c-1.2,0-2.3-0.3-3.2-1.5c-3.8-4.1-7-9.9-9.3-17.8c-2.6,5.3-4.7,9.3-6.1,12
		c-3.2,4.7-5.3,7-7,7.3c-1.2,0-2-0.9-2.9-2.9c-2-5.5-4.4-16-7-31.8C5.4,32.4,5.7,31.5,6.3,30.6z"/>
	<path fill="#FFFFFF" d="M96.4,37.3c-1.5-2.6-3.8-4.4-6.7-5c-0.9-0.3-1.5-0.3-2.3-0.3c-4.1,0-7.3,2-9.9,6.4c-2,3.5-3.2,7.6-3.2,12
		c0,3.2,0.6,6.1,2,8.5c1.5,2.6,3.8,4.4,6.7,5c0.9,0.3,1.5,0.3,2.3,0.3c4.1,0,7.3-2,9.9-6.4c2-3.5,3.2-7.6,3.2-12
		C98.5,42.3,97.9,39.4,96.4,37.3L96.4,37.3z M91.2,48.7c-0.6,2.9-1.8,5-3.2,6.1c-1.2,1.2-2.3,1.5-3.5,1.5c-0.9-0.3-1.8-1.2-2.3-2.6
		c-0.6-1.2-0.9-2.6-0.9-3.8c0-1.2,0-2,0.3-3.2c0.3-1.8,1.2-3.5,2.3-5c1.5-2,2.9-2.9,4.4-2.6c0.9,0.3,1.8,1.2,2.3,2.6
		c0.6,1.2,0.9,2.6,0.9,3.8C91.5,47,91.5,47.8,91.2,48.7L91.2,48.7z"/>
	<path fill="#FFFFFF" d="M70.2,37.3c-1.5-2.6-3.8-4.4-6.7-5c-0.9-0.3-1.5-0.3-2.3-0.3c-4.1,0-7.3,2-9.9,6.4c-2,3.5-3.2,7.6-3.2,12
		c0,3.2,0.6,6.1,2,8.5c1.5,2.6,3.8,4.4,6.7,5c0.9,0.3,1.5,0.3,2.3,0.3c4.1,0,7.3-2,9.9-6.4c2-3.5,3.2-7.6,3.2-12
		C72.2,42.3,71.6,39.4,70.2,37.3L70.2,37.3z M64.9,48.7c-0.6,2.9-1.8,5-3.2,6.1c-1.2,1.2-2.3,1.5-3.5,1.5c-0.9-0.3-1.8-1.2-2.3-2.6
		C55.3,52.5,55,51,55,49.9c0-1.2,0-2,0.3-3.2c0.3-1.8,1.2-3.5,2.3-5c1.5-2,2.9-2.9,4.4-2.6c0.9,0.3,1.8,1.2,2.3,2.6
		c0.6,1.2,0.9,2.6,0.9,3.8C65.2,47,64.9,47.8,64.9,48.7L64.9,48.7z"/>
</g>
</svg>
