<?xml version="1.0" encoding="utf-8"?>
<!-- Generator: Adobe Illustrator 18.1.1, SVG Export Plug-In . SVG Version: 6.00 Build 0)  -->
<svg version="1.1" id="Layer_1" xmlns="http://www.w3.org/2000/svg" xmlns:xlink="http://www.w3.org/1999/xlink" x="0px" y="0px"
	 viewBox="0 0 105 105" enable-background="new 0 0 105 105" xml:space="preserve">
<g>
	<g>
		<path fill="#FB7A24" d="M52.5,0.6c13.4,0,26.7,0,40.1,0c1.7,0,3.3,0.1,4.9,0.6c3.5,1.1,5.3,3.6,6.1,7c0.3,1.4,0.4,2.8,0.4,4.2
			c0,9.4,0,18.7,0,28.1c0,17.1,0,34.1,0,51.2c0,2.4-0.1,4.8-1.3,7c-1.3,2.4-3.1,4.3-5.8,5.2c-0.5,0.2-1,0.3-1.5,0.3
			c-1.2,0-2.3,0.3-3.4,0.3c-26.2,0-52.4,0-78.5,0c-2.1,0-4.3-0.2-6.3-1c-0.4-0.2-0.8-0.3-1.2-0.6c-2.6-2-4.3-4.4-4.7-7.7
			C1,93.8,1,92.7,1,91.5c0-26.5,0-53.1,0-79.6c0-1.5,0-3.1,0.5-4.6c1.3-3.9,4-6.1,8.1-6.5c1-0.1,1.9-0.2,2.9-0.2
			C25.8,0.6,39.1,0.6,52.5,0.6L52.5,0.6z"/>
		<path fill="#FFFFFF" d="M52.8,66.6c-0.3,1.8-0.5,3.4-1.1,4.9c-3,7-8.1,11.3-15.8,12.1c-9.1,1-17.5-4.6-20-13.3
			c-0.9-3.2-0.8-6.4-0.5-9.6c0.4-3.4,1.4-6.7,2.9-9.8c0.2-0.4,0.2-0.8-0.1-1.2c-2.4-3.7-3.4-7.7-3-12c0.2-2.3,0.7-4.6,1.8-6.6
			c3.1-6.1,9.9-11.3,19-10.4c8,0.8,15.4,7.7,16.6,15.4c0.1,0.4,0.2,0.8,0.3,1.3c0.2-1,0.3-1.9,0.5-2.7c1.5-7,8.4-14.4,18.2-14.5
			C81.4,20,88.7,27.8,90.1,35c0.6,3.1,0.5,6.1,0,9.1c-0.5,3-1.4,6-2.7,8.8c-0.3,0.6-0.3,1.1,0.1,1.6c2.1,3.3,3.1,6.9,3,10.9
			C90.2,73.7,84.4,81,76.4,83c-11.2,2.7-19.8-4-22.6-12.1C53.3,69.6,53.1,68.2,52.8,66.6L52.8,66.6z M73.1,52.2
			c0.1-0.5,0.5-0.7,0.7-1.1c2.8-3.7,4.3-7.9,3.9-12.6c-0.2-3.4-3.1-5.8-6.5-5.7c-3.4,0.1-6,2.8-6,6.2c0,0.3,0,0.6,0,0.8
			c-0.2,3.6-2.2,5.6-5.3,5.8c-0.6,0-1.1,0.1-1.7,0.1c-3.9,0-7.9,0-11.8,0c-1.7,0-3.4,0.2-5.1,0.7c-7.7,2.4-12.1,7.6-13.6,15.4
			c-0.3,1.5-0.6,3.1-0.1,4.7c0.7,2.3,2.1,4,4.5,4.5c2.5,0.6,4.6-0.1,6.4-2c1.1-1.3,1.5-2.8,1.5-4.4c0.2-4.2,2.5-6.3,6.4-6.3
			c5.9,0,11.8,0,17.7,0c1,0,1.1,0,1.1,1c0,1.9,0,3.8,0,5.7c0.1,3.1,2.9,5.7,6,5.8c3.3,0.1,6.2-2.3,6.4-5.5c0.2-2.7,0.2-5.5,0-8.2
			c-0.1-2.1-1.3-3.6-3.2-4.5C74.1,52.5,73.6,52.4,73.1,52.2L73.1,52.2z M36.2,45.7c1.3,0,2.3,0,3.3,0c0.5,0,0.7-0.2,0.7-0.7
			c0-2,0.1-4,0-6c-0.2-2.6-1.6-4.5-4-5.5c-2.5-1-4.8-0.4-6.7,1.4c-1.9,1.9-2.2,4.1-1.5,6.6c0.6,2.3,2.1,3.6,4.4,4
			C33.7,45.8,35.1,45.7,36.2,45.7L36.2,45.7z"/>
	</g>
</g>
</svg>
